<?xml version="1.0" encoding="UTF-8" standalone="yes"?>
<svg version="1.2" width="500" height="500" baseProfile="tiny-ps" xmlns="http://www.w3.org/2000/svg">
  <title>bimi-svg-tiny-12-ps</title>
  <path d="M0 0 C165 0 330 0 500 0 C500 165 500 330 500 500 C335 500 170 500 0 500 C0 335 0 170 0 0 Z " fill="#FEFEFE" transform="translate(0,0)"/>
  <path d="M0 0 C1.68484755 0.03194024 3.37004694 0.04423436 5.05517578 0.05273438 C9.27934967 0.23113086 12.10851664 0.55959556 15.14501953 3.66210938 C17.39806871 7.85744233 16.96799745 9.45109419 15.95751953 14.03710938 C15.87534877 15.5771484 15.83507712 17.11988187 15.83251953 18.66210938 C15.82994141 19.37625 15.82736328 20.09039062 15.82470703 20.82617188 C15.90386485 23.06851354 15.90386485 23.06851354 16.45092773 25.34350586 C17.33101898 30.02304646 17.22535527 34.72530957 17.27001953 39.47460938 C17.31352539 41.01084961 17.31352539 41.01084961 17.35791016 42.578125 C17.40972476 48.73609084 17.12086385 52.37993772 12.95751953 57.03710938 C9.96858725 59.224133 8.67807499 60.03710938 4.95751953 60.03710938 C5.32876953 61.52210938 5.32876953 61.52210938 5.70751953 63.03710938 C6.4344292 67.77656042 4.35510484 71.07543407 1.95751953 75.03710938 C2.61751953 75.03710938 3.27751953 75.03710938 3.95751953 75.03710938 C5.44891974 71.41513744 6.74494573 67.7614432 7.95751953 64.03710938 C7.29751953 64.03710938 6.63751953 64.03710938 5.95751953 64.03710938 C6.45251953 63.04710937 6.45251953 63.04710937 6.95751953 62.03710938 C8.44251953 63.02710938 8.44251953 63.02710938 9.95751953 64.03710938 C9.95751953 64.69710937 9.95751953 65.35710937 9.95751953 66.03710938 C10.54919922 66.20726562 11.14087891 66.37742187 11.75048828 66.55273438 C22.17258412 69.74907046 22.17258412 69.74907046 25.14501953 75.22460938 C27.95751953 81.31835938 27.95751953 81.31835938 27.95751953 84.03710938 C37.52857679 83.92824727 37.52857679 83.92824727 45.73486328 79.67773438 C47.66604136 77.20526768 49.38938745 74.75253297 50.95751953 72.03710938 C50.62751953 71.37710938 50.29751953 70.71710938 49.95751953 70.03710938 C49.56515215 65.95648862 49.75601968 63.4820882 51.45751953 59.72460938 C54.40427455 56.55684773 56.03870906 56.33117174 60.12548828 55.59570312 C62.26418015 55.14058214 62.26418015 55.14058214 63.83251953 52.53710938 C64.38939453 51.29960937 64.38939453 51.29960937 64.95751953 50.03710938 C67.09606803 47.89856088 68.09027267 47.61055875 70.95751953 47.03710938 C70.19439453 46.60398438 69.43126953 46.17085937 68.64501953 45.72460938 C64.82359457 43.32510998 63.38194255 42.11938807 61.70751953 37.84960938 C60.81382688 33.30667174 60.89016861 30.53523112 61.95751953 26.03710938 C64.01220703 24.80664062 64.01220703 24.80664062 65.95751953 24.03710938 C65.87050781 23.09351563 65.87050781 23.09351563 65.78173828 22.13085938 C65.49015406 16.59909011 65.78871541 12.4241251 69.10595703 7.86523438 C75.16007519 1.88775063 82.21182286 -0.33052623 90.58251953 -0.52539062 C98.60057034 -0.17999767 105.61276198 0.92406548 111.95751953 6.03710938 C111.62751953 7.68710938 111.29751953 9.33710938 110.95751953 11.03710938 C110.27689453 11.16085938 109.59626953 11.28460938 108.89501953 11.41210938 C105.89937063 11.99835996 105.89937063 11.99835996 102.83251953 13.03710938 C99.70775554 13.96498689 96.70519083 14.28797295 93.45751953 14.53710938 C88.99934736 14.89278198 85.14186956 15.43459234 80.95751953 17.03710938 C78.95458606 20.04150959 78.46480327 21.74704882 77.83251953 25.22460938 C77.58115234 26.57619141 77.58115234 26.57619141 77.32470703 27.95507812 C77.20353516 28.64214844 77.08236328 29.32921875 76.95751953 30.03710938 C82.21012439 29.79899065 82.21012439 29.79899065 86.14501953 26.59960938 C86.74314453 25.75398438 87.34126953 24.90835938 87.95751953 24.03710938 C90.64160241 22.32905664 91.71921486 22.03710938 94.95751953 22.03710938 C94.62751953 23.02710938 94.29751953 24.01710937 93.95751953 25.03710938 C97.4020269 27.33344762 99.89564236 27.57727422 103.95751953 28.03710938 C103.95751953 26.71710938 103.95751953 25.39710938 103.95751953 24.03710938 C103.95751953 23.37710938 103.95751953 22.71710938 103.95751953 22.03710938 C106.26751953 22.36710937 108.57751953 22.69710937 110.95751953 23.03710938 C110.62751953 20.06710938 110.29751953 17.09710938 109.95751953 14.03710938 C112.65787694 16.73746679 112.6732894 19.16790852 113.29736328 22.84570312 C114.0555859 25.36264329 115.11493589 26.2290126 116.95751953 28.03710938 C118.20671373 38.03066298 113.56035161 47.02322251 107.95751953 55.03710938 C108.59173828 55.30265625 109.22595703 55.56820312 109.87939453 55.84179688 C111.95751953 57.03710938 111.95751953 57.03710938 113.20751953 60.16210938 C113.45501953 61.11085937 113.70251953 62.05960938 113.95751953 63.03710938 C112.96751953 62.70710938 111.97751953 62.37710938 110.95751953 62.03710938 C109.77001953 59.47460937 109.77001953 59.47460937 108.95751953 57.03710938 C107.96751953 57.03710938 106.97751953 57.03710938 105.95751953 57.03710938 C105.42126953 58.06835938 104.88501953 59.09960938 104.33251953 60.16210938 C102.01304408 64.1863583 99.5308928 67.04714399 95.95751953 70.03710938 C92.93833975 70.472568 91.47555308 70.35448933 88.85986328 68.75195312 C83.67694257 64.06362524 79.2400742 59.9222361 78.70751953 52.59960938 C78.79001953 51.75398438 78.87251953 50.90835938 78.95751953 50.03710938 C74.16914829 49.84557453 70.30461136 49.91186448 65.95751953 52.03710938 C65.31814453 53.02710938 64.67876953 54.01710937 64.02001953 55.03710938 C61.38775218 58.86586188 59.35706719 58.97795901 54.95751953 60.03710938 C52.667383 63.47231418 52.7790898 65.02244037 52.95751953 69.03710938 C53.54919922 68.6271875 54.14087891 68.21726562 54.75048828 67.79492188 C55.54068359 67.25609375 56.33087891 66.71726562 57.14501953 66.16210938 C57.92232422 65.6284375 58.69962891 65.09476562 59.50048828 64.54492188 C61.92518043 63.05695499 64.29086944 62.01282859 66.95751953 61.03710938 C64.18452992 63.93149715 61.29651154 66.33664335 58.08251953 68.72460938 C53.20520395 72.55575519 50.01143784 76.67413088 46.95751953 82.03710938 C47.84439453 81.87210937 48.73126953 81.70710938 49.64501953 81.53710938 C55.3754278 80.69649163 61.18176534 80.95894127 66.95751953 81.03710938 C66.65219072 89.84584553 65.54231945 98.4168126 64.08251953 107.09960938 C63.92106445 108.09871338 63.75960937 109.09781738 63.59326172 110.12719727 C62.72016318 115.13140815 61.76027152 118.74108788 58.95751953 123.03710938 C57.85248256 127.76163868 57.66154261 132.57974008 57.39501953 137.41210938 C57.33024414 138.51619141 57.33024414 138.51619141 57.26416016 139.64257812 C57.15908154 141.44059006 57.0578986 143.23882895 56.95751953 145.03710938 C55.96751953 145.03710938 54.97751953 145.03710938 53.95751953 145.03710938 C53.95751953 138.43710937 53.95751953 131.83710938 53.95751953 125.03710938 C47.68751953 125.69710937 41.41751953 126.35710937 34.95751953 127.03710938 C34.29751953 132.97710937 33.63751953 138.91710937 32.95751953 145.03710938 C32.29751953 145.03710938 31.63751953 145.03710938 30.95751953 145.03710938 C30.46251953 142.56210937 30.46251953 142.56210937 29.95751953 140.03710938 C29.00876953 140.82085937 28.06001953 141.60460937 27.08251953 142.41210938 C26.54884766 142.85296875 26.01517578 143.29382813 25.46533203 143.74804688 C24.24700792 144.7896193 23.09091857 145.90371034 21.95751953 147.03710938 C24.92751953 155.28710938 27.89751953 163.53710938 30.95751953 172.03710938 C34.96694172 162.44645138 34.96694172 162.44645138 38.77001953 152.78710938 C39.18896484 151.68882812 39.60791016 150.59054687 40.03955078 149.45898438 C40.34248047 148.65976562 40.64541016 147.86054688 40.95751953 147.03710938 C44.25751953 147.03710938 47.55751953 147.03710938 50.95751953 147.03710938 C49.37045734 155.94675599 46.05559617 164.18524302 42.83251953 172.59960938 C42.26294649 174.10004696 41.69393129 175.60069643 41.12548828 177.1015625 C39.74258813 180.74922074 38.35215894 184.39392424 36.95751953 188.03710938 C32.99751953 188.03710938 29.03751953 188.03710938 24.95751953 188.03710938 C24.55919922 186.89113281 24.16087891 185.74515625 23.75048828 184.56445312 C23.21546015 183.0344604 22.68029668 181.504515 22.14501953 179.97460938 C21.88398438 179.22244141 21.62294922 178.47027344 21.35400391 177.6953125 C21.09296875 176.95087891 20.83193359 176.20644531 20.56298828 175.43945312 C20.32733154 174.76390381 20.0916748 174.08835449 19.84887695 173.39233398 C18.65340906 170.23356139 17.28795173 167.14145117 15.95751953 164.03710938 C12.98751953 171.95710937 10.01751953 179.87710938 6.95751953 188.03710938 C2.99751953 188.03710938 -0.96248047 188.03710938 -5.04248047 188.03710938 C-5.36861328 187.11929688 -5.69474609 186.20148438 -6.03076172 185.25585938 C-6.46775391 184.02867187 -6.90474609 182.80148437 -7.35498047 181.53710938 C-7.78423828 180.33054687 -8.21349609 179.12398437 -8.65576172 177.88085938 C-9.58545693 175.28622198 -10.53907087 172.70206339 -11.51123047 170.12304688 C-13.13163387 165.81938922 -14.69055147 161.49531692 -16.22998047 157.16210938 C-16.63893555 156.02515625 -16.63893555 156.02515625 -17.05615234 154.86523438 C-19.04248047 149.26966342 -19.04248047 149.26966342 -19.04248047 147.03710938 C-15.41248047 147.03710938 -11.78248047 147.03710938 -8.04248047 147.03710938 C-6.91631805 150.07835014 -5.79151409 153.12008187 -4.66748047 156.16210938 C-4.35037109 157.01804687 -4.03326172 157.87398437 -3.70654297 158.75585938 C-2.07985729 163.16146643 -0.49268433 167.56930962 0.95751953 172.03710938 C4.74927747 163.87024612 7.84936244 155.48093615 10.95751953 147.03710938 C13.26751953 147.03710938 15.57751953 147.03710938 17.95751953 147.03710938 C17.95751953 141.09710938 17.95751953 135.15710938 17.95751953 129.03710938 C15.85376953 129.11960938 13.75001953 129.20210937 11.58251953 129.28710938 C5.56917762 129.31747979 1.46181552 128.34019846 -3.94873047 125.88085938 C-7.11666384 124.60422951 -8.83752559 124.90202119 -12.04248047 126.03710938 C-14.68555985 127.32991994 -17.29070935 128.66113795 -19.87060547 130.07617188 C-20.58732422 130.39328125 -21.30404297 130.71039063 -22.04248047 131.03710938 C-22.70248047 130.70710937 -23.36248047 130.37710938 -24.04248047 130.03710938 C-19.29248047 127.03710938 -19.29248047 127.03710938 -17.04248047 127.03710938 C-18.03248047 123.73710937 -19.02248047 120.43710938 -20.04248047 117.03710938 C-20.80915039 117.25439697 -21.57582031 117.47168457 -22.36572266 117.69555664 C-25.83854836 118.67370257 -29.31537245 119.63680257 -32.79248047 120.59960938 C-33.99904297 120.94185547 -35.20560547 121.28410156 -36.44873047 121.63671875 C-38.18896484 122.1152832 -38.18896484 122.1152832 -39.96435547 122.60351562 C-41.03266602 122.90201416 -42.10097656 123.2005127 -43.20166016 123.50805664 C-45.96374304 124.02244592 -47.43829113 123.98483651 -50.04248047 123.03710938 C-49.71248047 122.70710938 -49.38248047 122.37710938 -49.04248047 122.03710938 C-50.4348309 121.52749092 -51.83157165 121.02986028 -53.22998047 120.53710938 C-54.00728516 120.25867188 -54.78458984 119.98023438 -55.58544922 119.69335938 C-58.17470826 119.00179257 -60.37505285 118.9234002 -63.04248047 119.03710938 C-62.81276849 121.58207626 -62.55949638 124.12100797 -62.29248047 126.66210938 C-62.19966797 127.73138672 -62.19966797 127.73138672 -62.10498047 128.82226562 C-61.55384715 133.82839329 -60.28312678 137.01722368 -57.04248047 141.03710938 C-53.38729486 142.86470218 -49.83588624 142.04372555 -46.04248047 141.03710938 C-42.41881329 139.45644856 -38.92597422 137.62863388 -35.45214844 135.74438477 C-33.67550172 134.79070268 -31.86132027 133.90762924 -30.04248047 133.03710938 C-29.38248047 133.36710938 -28.72248047 133.69710937 -28.04248047 134.03710938 C-28.5469873 134.28879883 -29.05149414 134.54048828 -29.57128906 134.79980469 C-31.85970561 135.95007534 -34.13848175 137.11829813 -36.41748047 138.28710938 C-37.21154297 138.68285156 -38.00560547 139.07859375 -38.82373047 139.48632812 C-39.58427734 139.87949219 -40.34482422 140.27265625 -41.12841797 140.67773438 C-42.18101807 141.21188965 -42.18101807 141.21188965 -43.25488281 141.75683594 C-45.36808695 143.27030801 -46.07189071 144.65674897 -47.04248047 147.03710938 C-47.37248047 146.04710937 -47.70248047 145.05710937 -48.04248047 144.03710938 C-49.25935547 144.11960937 -50.47623047 144.20210937 -51.72998047 144.28710938 C-54.83167399 144.26518928 -56.027528 144.04508403 -58.85498047 142.53710938 C-64.75450231 135.7947987 -64.42581104 128.55556649 -64.04248047 120.03710938 C-64.70248047 120.03710938 -65.36248047 120.03710938 -66.04248047 120.03710938 C-65.28504411 104.63590345 -60.97400329 84.11254247 -50.04638672 72.71289062 C-44.78501839 68.3130329 -38.61984104 66.20965846 -32.16748047 64.16210938 C-28.39862343 62.86506972 -26.4374073 61.93402234 -24.47998047 58.41210938 C-23.76841797 56.74148437 -23.76841797 56.74148437 -23.04248047 55.03710938 C-22.38248047 54.37710938 -21.72248047 53.71710938 -21.04248047 53.03710938 C-21.37248047 52.04710937 -21.70248047 51.05710938 -22.04248047 50.03710938 C-22.80560547 49.89273438 -23.56873047 49.74835938 -24.35498047 49.59960938 C-27.04248047 49.03710938 -27.04248047 49.03710938 -30.04248047 48.03710938 C-30.76263249 44.84786472 -31.26028628 41.6537982 -31.66748047 38.41210938 C-31.76287109 37.65671875 -31.85826172 36.90132812 -31.95654297 36.12304688 C-32.04248047 34.03710938 -32.04248047 34.03710938 -31.04248047 31.03710938 C-31.04815422 28.6200902 -31.0952908 26.20305692 -31.16748047 23.78710938 C-31.26452052 18.09431903 -30.8219093 14.04008127 -28.04248047 9.03710938 C-27.67463916 7.71288067 -27.33045066 6.38097025 -27.04248047 5.03710938 C-26.71248047 4.04710938 -26.38248047 3.05710937 -26.04248047 2.03710938 C-24.08935547 1.80924479 -22.13623047 1.58138021 -20.18310547 1.35351562 C-18.08089321 1.09362177 -18.08089321 1.09362177 -16.25341797 0.50976562 C-11.01229431 -0.61068661 -5.34407924 -0.10393671 0 0 Z " fill="#F9F9F9" transform="translate(202.04248046875,122.962890625)"/>
  <path d="M0 0 C1.36063887 0.96251734 2.70227561 1.95420405 4 3 C3.67 4.65 3.34 6.3 3 8 C2.319375 8.12375 1.63875 8.2475 0.9375 8.375 C-2.0581489 8.96125058 -2.0581489 8.96125058 -5.125 10 C-8.24976399 10.92787752 -11.2523287 11.25086357 -14.5 11.5 C-18.95817218 11.85567261 -22.81564997 12.39748297 -27 14 C-29.00293347 17.00440021 -29.49271626 18.70993945 -30.125 22.1875 C-30.29257812 23.08855469 -30.46015625 23.98960937 -30.6328125 24.91796875 C-30.81457031 25.94857422 -30.81457031 25.94857422 -31 27 C-25.74739514 26.76188128 -25.74739514 26.76188128 -21.8125 23.5625 C-21.214375 22.716875 -20.61625 21.87125 -20 21 C-17.31591712 19.29194726 -16.23830467 19 -13 19 C-13.495 20.485 -13.495 20.485 -14 22 C-10.55549263 24.29633824 -8.06187717 24.54016485 -4 25 C-4 23.68 -4 22.36 -4 21 C-4 20.34 -4 19.68 -4 19 C-1.69 19.33 0.62 19.66 3 20 C2.67 17.03 2.34 14.06 2 11 C4.70035741 13.70035741 4.71576987 16.13079914 5.33984375 19.80859375 C6.09806637 22.32553391 7.15741636 23.19190322 9 25 C10.2491942 34.9935536 5.60283207 43.98611314 0 52 C0.63421875 52.26554687 1.2684375 52.53109375 1.921875 52.8046875 C4 54 4 54 5.25 57.125 C5.4975 58.07375 5.745 59.0225 6 60 C5.01 59.67 4.02 59.34 3 59 C1.8125 56.4375 1.8125 56.4375 1 54 C0.01 54 -0.98 54 -2 54 C-2.53625 55.03125 -3.0725 56.0625 -3.625 57.125 C-5.94447545 61.14924892 -8.42662673 64.01003461 -12 67 C-15.01917978 67.43545862 -16.48196645 67.31737996 -19.09765625 65.71484375 C-24.28057696 61.02651587 -28.71744533 56.88512672 -29.25 49.5625 C-29.1675 48.716875 -29.085 47.87125 -29 47 C-33.78837124 46.80846515 -37.65290818 46.87475511 -42 49 C-42.639375 49.99 -43.27875 50.98 -43.9375 52 C-46.56976735 55.8287525 -48.60045234 55.94084964 -53 57 C-55.29013653 60.4352048 -55.17842973 61.985331 -55 66 C-54.40832031 65.59007812 -53.81664062 65.18015625 -53.20703125 64.7578125 C-52.41683594 64.21898437 -51.62664062 63.68015625 -50.8125 63.125 C-50.03519531 62.59132813 -49.25789063 62.05765625 -48.45703125 61.5078125 C-46.0323391 60.01984561 -43.6666501 58.97571922 -41 58 C-43.77298961 60.89438777 -46.66100799 63.29953397 -49.875 65.6875 C-54.75231558 69.51864582 -57.94608169 73.63702151 -61 79 C-60.113125 78.835 -59.22625 78.67 -58.3125 78.5 C-52.58209173 77.65938226 -46.77575419 77.9218319 -41 78 C-41.30532881 86.80873616 -42.41520009 95.37970323 -43.875 104.0625 C-44.11718262 105.56115601 -44.11718262 105.56115601 -44.36425781 107.09008789 C-45.23735635 112.09429877 -46.19724801 115.70397851 -49 120 C-50.10503697 124.72452931 -50.29597692 129.54263071 -50.5625 134.375 C-50.62727539 135.47908203 -50.62727539 135.47908203 -50.69335938 136.60546875 C-50.79843799 138.40348068 -50.89962093 140.20171958 -51 142 C-51.99 142 -52.98 142 -54 142 C-54 135.4 -54 128.8 -54 122 C-60.27 122.66 -66.54 123.32 -73 124 C-73.66 129.94 -74.32 135.88 -75 142 C-75.66 142 -76.32 142 -77 142 C-77.495 139.525 -77.495 139.525 -78 137 C-78.94875 137.78375 -79.8975 138.5675 -80.875 139.375 C-81.40867188 139.81585938 -81.94234375 140.25671875 -82.4921875 140.7109375 C-83.71051161 141.75250992 -84.86660097 142.86660097 -86 144 C-83.03 152.25 -80.06 160.5 -77 169 C-72.99057781 159.40934201 -72.99057781 159.40934201 -69.1875 149.75 C-68.76855469 148.65171875 -68.34960938 147.5534375 -67.91796875 146.421875 C-67.61503906 145.62265625 -67.31210938 144.8234375 -67 144 C-63.7 144 -60.4 144 -57 144 C-58.58706219 152.90964661 -61.90192336 161.14813365 -65.125 169.5625 C-65.69457304 171.06293759 -66.26358824 172.56358706 -66.83203125 174.06445312 C-68.2149314 177.71211137 -69.60536059 181.35681486 -71 185 C-74.96 185 -78.92 185 -83 185 C-83.39832031 183.85402344 -83.79664063 182.70804688 -84.20703125 181.52734375 C-84.74205938 179.99735102 -85.27722285 178.46740562 -85.8125 176.9375 C-86.07353516 176.18533203 -86.33457031 175.43316406 -86.60351562 174.65820312 C-86.86455078 173.91376953 -87.12558594 173.16933594 -87.39453125 172.40234375 C-87.63018799 171.72679443 -87.86584473 171.05124512 -88.10864258 170.35522461 C-89.30411047 167.19645201 -90.6695678 164.10434179 -92 161 C-94.97 168.92 -97.94 176.84 -101 185 C-104.96 185 -108.92 185 -113 185 C-113.48919922 183.62328125 -113.48919922 183.62328125 -113.98828125 182.21875 C-114.42527344 180.9915625 -114.86226562 179.764375 -115.3125 178.5 C-115.74175781 177.2934375 -116.17101562 176.086875 -116.61328125 174.84375 C-117.54297646 172.2491126 -118.4965904 169.66495401 -119.46875 167.0859375 C-121.0891534 162.78227984 -122.648071 158.45820754 -124.1875 154.125 C-124.59645508 152.98804688 -124.59645508 152.98804688 -125.01367188 151.828125 C-127 146.23255404 -127 146.23255404 -127 144 C-123.37 144 -119.74 144 -116 144 C-114.87383758 147.04124077 -113.74903363 150.08297249 -112.625 153.125 C-112.30789062 153.9809375 -111.99078125 154.836875 -111.6640625 155.71875 C-110.03737682 160.12435706 -108.45020386 164.53220024 -107 169 C-103.20824206 160.83313674 -100.10815709 152.44382677 -97 144 C-94.69 144 -92.38 144 -90 144 C-90 137.73 -90 131.46 -90 125 C-91.32 124.67 -92.64 124.34 -94 124 C-62.473206 119.63724293 -62.473206 119.63724293 -50 118 C-47.56173371 105.35044584 -45.2048057 92.6924034 -43 80 C-47.15895059 80.38624909 -51.31743558 80.7771259 -55.47558594 81.171875 C-56.88335053 81.30491227 -58.2912251 81.43679206 -59.69921875 81.56738281 C-69.18162101 82.44789159 -78.58323885 83.55965896 -88 85 C-88.17917969 85.72695068 -88.35835937 86.45390137 -88.54296875 87.20288086 C-90.92075466 96.83021177 -93.46302598 106.41364759 -96 116 C-96.33 116 -96.66 116 -97 116 C-96.96680426 108.61394896 -95.28135523 101.98403539 -93.0625 95 C-92.79743652 94.16299561 -92.53237305 93.32599121 -92.25927734 92.46362305 C-91.09457055 88.9084116 -90.09519813 86.1427972 -88 83 C-84.875 81.8125 -84.875 81.8125 -82 81 C-84.93133279 74.04315029 -87.43345766 69.86267197 -94 66 C-92.1875 65.3828125 -92.1875 65.3828125 -90 65 C-84.40832405 68.49479747 -82.0664484 72.81281037 -80 79 C-80 79.66 -80 80.32 -80 81 C-70.42894274 80.8911379 -70.42894274 80.8911379 -62.22265625 76.640625 C-60.29147817 74.16815831 -58.56813208 71.7154236 -57 69 C-57.33 68.34 -57.66 67.68 -58 67 C-58.39236738 62.91937925 -58.20149985 60.44497883 -56.5 56.6875 C-53.55324498 53.51973835 -51.91881047 53.29406237 -47.83203125 52.55859375 C-45.69333938 52.10347276 -45.69333938 52.10347276 -44.125 49.5 C-43.568125 48.2625 -43.568125 48.2625 -43 47 C-40.8614515 44.8614515 -39.86724686 44.57344937 -37 44 C-37.763125 43.566875 -38.52625 43.13375 -39.3125 42.6875 C-43.13392496 40.2880006 -44.57557698 39.0822787 -46.25 34.8125 C-47.14369265 30.26956237 -47.06735092 27.49812175 -46 23 C-43.9453125 21.76953125 -43.9453125 21.76953125 -42 21 C-42.05800781 20.3709375 -42.11601562 19.741875 -42.17578125 19.09375 C-42.46736547 13.56198073 -42.16880412 9.38701572 -38.8515625 4.828125 C-28.69440187 -5.20046398 -12.56934531 -5.81781126 0 0 Z " fill="#0C0C0C" transform="translate(310,126)"/>
  <path d="M0 0 C1.68484755 0.03194024 3.37004694 0.04423436 5.05517578 0.05273438 C9.27934967 0.23113086 12.10851664 0.55959556 15.14501953 3.66210938 C17.39806871 7.85744233 16.96799745 9.45109419 15.95751953 14.03710938 C15.87534877 15.5771484 15.83507712 17.11988187 15.83251953 18.66210938 C15.82994141 19.37625 15.82736328 20.09039062 15.82470703 20.82617188 C15.90386485 23.06851354 15.90386485 23.06851354 16.45092773 25.34350586 C17.33101898 30.02304646 17.22535527 34.72530957 17.27001953 39.47460938 C17.31352539 41.01084961 17.31352539 41.01084961 17.35791016 42.578125 C17.40972476 48.73609084 17.12086385 52.37993772 12.95751953 57.03710938 C9.96858725 59.224133 8.67807499 60.03710938 4.95751953 60.03710938 C5.32876953 61.52210938 5.32876953 61.52210938 5.70751953 63.03710938 C6.4344292 67.77656042 4.35510484 71.07543407 1.95751953 75.03710938 C2.61751953 75.03710938 3.27751953 75.03710938 3.95751953 75.03710938 C5.44891974 71.41513744 6.74494573 67.7614432 7.95751953 64.03710938 C7.29751953 64.03710938 6.63751953 64.03710938 5.95751953 64.03710938 C6.45251953 63.04710937 6.45251953 63.04710937 6.95751953 62.03710938 C7.61751953 62.36710937 8.27751953 62.69710937 8.95751953 63.03710938 C9.32741545 69.4486386 9.32741545 69.4486386 7.58251953 72.22460938 C7.04626953 72.82273437 6.51001953 73.42085938 5.95751953 74.03710938 C5.26171686 75.35547233 4.5852752 76.68502024 3.95751953 78.03710938 C1.97751953 77.54210937 1.97751953 77.54210937 -0.04248047 77.03710938 C-1.20189085 80.51534053 -0.75068931 82.49606516 -0.04248047 86.03710938 C-0.70248047 85.04710937 -1.36248047 84.05710937 -2.04248047 83.03710938 C-4.18102896 80.89856088 -5.1752336 80.61055875 -8.04248047 80.03710938 C-8.04248047 79.04710937 -8.04248047 78.05710937 -8.04248047 77.03710938 C-7.71248047 77.03710938 -7.38248047 77.03710938 -7.04248047 77.03710938 C-6.86086944 73.04166685 -6.92517438 70.45168555 -9.04248047 67.03710938 C-10.80232753 65.42544501 -10.80232753 65.42544501 -12.85498047 64.03710938 C-13.91652344 63.27527344 -13.91652344 63.27527344 -14.99951172 62.49804688 C-15.67369141 62.0159375 -16.34787109 61.53382813 -17.04248047 61.03710938 C-18.71592808 59.71229669 -20.38596235 58.38303035 -22.04248047 57.03710938 C-22.63980866 59.79975226 -23.04248047 62.19743706 -23.04248047 65.03710938 C-24.03248047 64.70710938 -25.02248047 64.37710938 -26.04248047 64.03710938 C-29.42579586 64.99651524 -32.5862928 66.53965613 -35.79248047 67.97460938 C-36.67419922 68.34134766 -37.55591797 68.70808594 -38.46435547 69.0859375 C-45.99897255 72.4327875 -50.88070804 76.79792637 -54.64404297 84.17773438 C-57.56060978 93.03875416 -60.00201837 101.99617306 -62.22216797 111.05664062 C-62.40505371 111.80018799 -62.58793945 112.54373535 -62.77636719 113.30981445 C-62.86418457 113.87982178 -62.95200195 114.4498291 -63.04248047 115.03710938 C-61.08319691 116.99639293 -57.62906611 116.88652526 -54.97607422 117.34179688 C-51.17331976 118.24311551 -47.68268475 119.61521528 -44.04248047 121.03710938 C-43.95160156 119.12285156 -43.95160156 119.12285156 -43.85888672 117.16992188 C-43.77448479 115.50063922 -43.68983661 113.831369 -43.60498047 112.16210938 C-43.56566406 111.32035156 -43.52634766 110.47859375 -43.48583984 109.61132812 C-43.44394531 108.80566406 -43.40205078 108 -43.35888672 107.16992188 C-43.322229 106.42629395 -43.28557129 105.68266602 -43.24780273 104.91650391 C-43.04248047 103.03710938 -43.04248047 103.03710938 -42.04248047 101.03710938 C-41.38248047 101.03710938 -40.72248047 101.03710938 -40.04248047 101.03710938 C-40.04248047 107.30710937 -40.04248047 113.57710938 -40.04248047 120.03710938 C-37.74730469 119.40482422 -37.74730469 119.40482422 -35.40576172 118.75976562 C-33.38885936 118.20629009 -31.37193091 117.65290965 -29.35498047 117.09960938 C-28.34757812 116.82181641 -27.34017578 116.54402344 -26.30224609 116.2578125 C-25.32578125 115.99033203 -24.34931641 115.72285156 -23.34326172 115.44726562 C-22.44776611 115.20113525 -21.55227051 114.95500488 -20.62963867 114.70141602 C-16.14363187 113.54954053 -11.61171281 112.7809379 -7.04248047 112.03710938 C-7.37248047 112.69710937 -7.70248047 113.35710937 -8.04248047 114.03710938 C-11.02544656 114.63483037 -14.00578852 114.78048752 -17.04248047 115.03710938 C-16.38248047 118.00710937 -15.72248047 120.97710937 -15.04248047 124.03710938 C-14.15560547 123.70710938 -13.26873047 123.37710938 -12.35498047 123.03710938 C-9.2552281 122.10133507 -7.22848824 121.61789783 -4.04248047 122.03710938 C-3.47271484 122.50375 -2.90294922 122.97039062 -2.31591797 123.45117188 C0.60059198 125.48571318 3.23911483 125.99624439 6.70751953 126.72460938 C7.87798828 126.97597656 9.04845703 127.22734375 10.25439453 127.48632812 C11.14642578 127.66808594 12.03845703 127.84984375 12.95751953 128.03710938 C12.95751953 128.36710938 12.95751953 128.69710937 12.95751953 129.03710938 C7.51513997 129.38823064 3.7863399 129.18970684 -1.22998047 126.97460938 C-5.38156503 125.18898161 -7.62917307 124.474063 -12.04248047 126.03710938 C-14.68555985 127.32991994 -17.29070935 128.66113795 -19.87060547 130.07617188 C-20.58732422 130.39328125 -21.30404297 130.71039063 -22.04248047 131.03710938 C-22.70248047 130.70710937 -23.36248047 130.37710938 -24.04248047 130.03710938 C-19.29248047 127.03710938 -19.29248047 127.03710938 -17.04248047 127.03710938 C-18.03248047 123.73710937 -19.02248047 120.43710938 -20.04248047 117.03710938 C-20.80915039 117.25439697 -21.57582031 117.47168457 -22.36572266 117.69555664 C-25.83854836 118.67370257 -29.31537245 119.63680257 -32.79248047 120.59960938 C-33.99904297 120.94185547 -35.20560547 121.28410156 -36.44873047 121.63671875 C-38.18896484 122.1152832 -38.18896484 122.1152832 -39.96435547 122.60351562 C-41.03266602 122.90201416 -42.10097656 123.2005127 -43.20166016 123.50805664 C-45.96374304 124.02244592 -47.43829113 123.98483651 -50.04248047 123.03710938 C-49.71248047 122.70710938 -49.38248047 122.37710938 -49.04248047 122.03710938 C-50.4348309 121.52749092 -51.83157165 121.02986028 -53.22998047 120.53710938 C-54.00728516 120.25867188 -54.78458984 119.98023438 -55.58544922 119.69335938 C-58.17470826 119.00179257 -60.37505285 118.9234002 -63.04248047 119.03710938 C-62.81276849 121.58207626 -62.55949638 124.12100797 -62.29248047 126.66210938 C-62.19966797 127.73138672 -62.19966797 127.73138672 -62.10498047 128.82226562 C-61.55384715 133.82839329 -60.28312678 137.01722368 -57.04248047 141.03710938 C-53.38729486 142.86470218 -49.83588624 142.04372555 -46.04248047 141.03710938 C-42.41881329 139.45644856 -38.92597422 137.62863388 -35.45214844 135.74438477 C-33.67550172 134.79070268 -31.86132027 133.90762924 -30.04248047 133.03710938 C-29.38248047 133.36710938 -28.72248047 133.69710937 -28.04248047 134.03710938 C-28.5469873 134.28879883 -29.05149414 134.54048828 -29.57128906 134.79980469 C-31.85970561 135.95007534 -34.13848175 137.11829813 -36.41748047 138.28710938 C-37.21154297 138.68285156 -38.00560547 139.07859375 -38.82373047 139.48632812 C-39.58427734 139.87949219 -40.34482422 140.27265625 -41.12841797 140.67773438 C-42.18101807 141.21188965 -42.18101807 141.21188965 -43.25488281 141.75683594 C-45.36808695 143.27030801 -46.07189071 144.65674897 -47.04248047 147.03710938 C-47.37248047 146.04710937 -47.70248047 145.05710937 -48.04248047 144.03710938 C-49.25935547 144.11960937 -50.47623047 144.20210937 -51.72998047 144.28710938 C-54.83167399 144.26518928 -56.027528 144.04508403 -58.85498047 142.53710938 C-64.75450231 135.7947987 -64.42581104 128.55556649 -64.04248047 120.03710938 C-64.70248047 120.03710938 -65.36248047 120.03710938 -66.04248047 120.03710938 C-65.28504411 104.63590345 -60.97400329 84.11254247 -50.04638672 72.71289062 C-44.78501839 68.3130329 -38.61984104 66.20965846 -32.16748047 64.16210938 C-28.39862343 62.86506972 -26.4374073 61.93402234 -24.47998047 58.41210938 C-23.76841797 56.74148437 -23.76841797 56.74148437 -23.04248047 55.03710938 C-22.38248047 54.37710938 -21.72248047 53.71710938 -21.04248047 53.03710938 C-21.37248047 52.04710937 -21.70248047 51.05710938 -22.04248047 50.03710938 C-22.80560547 49.89273438 -23.56873047 49.74835938 -24.35498047 49.59960938 C-27.04248047 49.03710938 -27.04248047 49.03710938 -30.04248047 48.03710938 C-30.76263249 44.84786472 -31.26028628 41.6537982 -31.66748047 38.41210938 C-31.76287109 37.65671875 -31.85826172 36.90132812 -31.95654297 36.12304688 C-32.04248047 34.03710938 -32.04248047 34.03710938 -31.04248047 31.03710938 C-31.04815422 28.6200902 -31.0952908 26.20305692 -31.16748047 23.78710938 C-31.26452052 18.09431903 -30.8219093 14.04008127 -28.04248047 9.03710938 C-27.67463916 7.71288067 -27.33045066 6.38097025 -27.04248047 5.03710938 C-26.71248047 4.04710938 -26.38248047 3.05710937 -26.04248047 2.03710938 C-24.08935547 1.80924479 -22.13623047 1.58138021 -20.18310547 1.35351562 C-18.08089321 1.09362177 -18.08089321 1.09362177 -16.25341797 0.50976562 C-11.01229431 -0.61068661 -5.34407924 -0.10393671 0 0 Z " fill="#060606" transform="translate(202.04248046875,122.962890625)"/>
  <path d="M0 0 C3.96 0 7.92 0 12 0 C12.33 6.27 12.66 12.54 13 19 C14.65 18.01 16.3 17.02 18 16 C24.54573033 15.16437485 31.56043121 14.8871553 37 19 C42.24698798 24.25969255 45.28022863 28.52457342 45.5 36.125 C45.3759423 43.01795572 43.67368203 47.88354809 39 53 C33.31586032 57.02492753 26.95006373 58.77368634 20 58 C14.84375 55.84375 14.84375 55.84375 13 54 C12.67 54.99 12.34 55.98 12 57 C8.04 57 4.08 57 0 57 C0 38.19 0 19.38 0 0 Z " fill="#8F66C3" transform="translate(303,254)"/>
  <path d="M0 0 C0.15113511 7.2850582 -1.07285031 14.04396534 -2.375 21.1875 C-2.70757812 23.09305664 -2.70757812 23.09305664 -3.046875 25.03710938 C-3.37558594 26.86532227 -3.37558594 26.86532227 -3.7109375 28.73046875 C-4.00943604 30.39178833 -4.00943604 30.39178833 -4.31396484 32.08666992 C-4.93462762 34.72238839 -5.51656709 36.74200771 -7 39 C-9.66796875 39.72265625 -9.66796875 39.72265625 -13.1875 40.0625 C-14.53920678 40.20567565 -15.89075985 40.35030698 -17.2421875 40.49609375 C-17.99209961 40.5719873 -18.74201172 40.64788086 -19.51464844 40.72607422 C-22.27050715 41.02981425 -25.01195591 41.4014973 -27.7578125 41.78515625 C-28.7578833 41.9236499 -29.7579541 42.06214355 -30.78833008 42.20483398 C-32.75993067 42.47876025 -34.73114564 42.75548106 -36.7019043 43.03540039 C-42.84118974 43.86046163 -48.80741076 44.16684347 -55 44 C-53.66830346 34.39981221 -51.31083896 25.26827981 -48.57421875 15.99072266 C-48.08914247 14.30904239 -47.64880926 12.61455254 -47.21875 10.91796875 C-46.5625 8.5 -46.5625 8.5 -45 5 C-31.85368469 -0.7031809 -14.09966669 -0.25430261 0 0 Z " fill="#FCFCFC" transform="translate(267,206)"/>
  <path d="M0 0 C-0.64291992 0.24476074 -1.28583984 0.48952148 -1.94824219 0.74169922 C-4.15307548 1.79305298 -4.15307548 1.79305298 -4.63769531 3.87939453 C-4.70053711 4.62302246 -4.76337891 5.36665039 -4.828125 6.1328125 C-4.90546875 6.93847656 -4.9828125 7.74414062 -5.0625 8.57421875 C-5.1553125 9.83685547 -5.1553125 9.83685547 -5.25 11.125 C-5.32734375 11.97449219 -5.4046875 12.82398438 -5.484375 13.69921875 C-5.67303293 15.79803818 -5.83870349 17.8989007 -6 20 C-6.66 20 -7.32 20 -8 20 C-8.33 18.35 -8.66 16.7 -9 15 C-9.94875 15.78375 -10.8975 16.5675 -11.875 17.375 C-12.40867188 17.81585938 -12.94234375 18.25671875 -13.4921875 18.7109375 C-14.71051161 19.75250992 -15.86660097 20.86660097 -17 22 C-14.03 30.25 -11.06 38.5 -8 47 C-3.99057781 37.40934201 -3.99057781 37.40934201 -0.1875 27.75 C0.23144531 26.65171875 0.65039062 25.5534375 1.08203125 24.421875 C1.38496094 23.62265625 1.68789062 22.8234375 2 22 C5.3 22 8.6 22 12 22 C10.41293781 30.90964661 7.09807664 39.14813365 3.875 47.5625 C3.30542696 49.06293759 2.73641176 50.56358706 2.16796875 52.06445312 C0.7850686 55.71211137 -0.60536059 59.35681486 -2 63 C-5.96 63 -9.92 63 -14 63 C-14.39832031 61.85402344 -14.79664063 60.70804687 -15.20703125 59.52734375 C-15.74205938 57.99735102 -16.27722285 56.46740562 -16.8125 54.9375 C-17.07353516 54.18533203 -17.33457031 53.43316406 -17.60351562 52.65820312 C-17.86455078 51.91376953 -18.12558594 51.16933594 -18.39453125 50.40234375 C-18.63018799 49.72679443 -18.86584473 49.05124512 -19.10864258 48.35522461 C-20.30411047 45.19645201 -21.6695678 42.10434179 -23 39 C-25.97 46.92 -28.94 54.84 -32 63 C-35.96 63 -39.92 63 -44 63 C-44.32613281 62.0821875 -44.65226563 61.164375 -44.98828125 60.21875 C-45.42527344 58.9915625 -45.86226562 57.764375 -46.3125 56.5 C-46.74175781 55.2934375 -47.17101562 54.086875 -47.61328125 52.84375 C-48.54297646 50.2491126 -49.4965904 47.66495401 -50.46875 45.0859375 C-52.0891534 40.78227984 -53.648071 36.45820754 -55.1875 32.125 C-55.59645508 30.98804688 -55.59645508 30.98804688 -56.01367188 29.828125 C-58 24.23255404 -58 24.23255404 -58 22 C-54.37 22 -50.74 22 -47 22 C-45.87383758 25.04124077 -44.74903363 28.08297249 -43.625 31.125 C-43.30789062 31.9809375 -42.99078125 32.836875 -42.6640625 33.71875 C-41.03737682 38.12435706 -39.45020386 42.53220024 -38 47 C-34.20824206 38.83313674 -31.10815709 30.44382677 -28 22 C-25.69 22 -23.38 22 -21 22 C-21 15.73 -21 9.46 -21 3 C-22.32 2.67 -23.64 2.34 -25 2 C-16.6030674 0.62707087 -8.51372785 -0.31274919 0 0 Z " fill="#8D65C3" transform="translate(241,248)"/>
  <path d="M0 0 C0 -0.99 0 -1.98 0 -3 C2.66666667 -2.33333333 5.33333333 -1.66666667 8 -1 C8 -1.66 8 -2.32 8 -3 C14.875 -2.125 14.875 -2.125 16 -1 C16.45765667 1.98889359 16.70320951 4.98969648 17 8 C12.545 8.495 12.545 8.495 8 9 C8 9.99 8 10.98 8 12 C9.65 12 11.3 12 13 12 C13 13.65 13 15.3 13 17 C14.32 16.67 15.64 16.34 17 16 C17.25007388 18.39528594 17.47552126 20.78879325 17.6875 23.1875 C17.76033203 23.86103516 17.83316406 24.53457031 17.90820312 25.22851562 C18.36924457 30.78813303 16.99700188 33.43242616 13.6875 37.6875 C8.66912263 41.5906824 3.02584609 41.1826014 -3 41 C-0.03 41.66 2.94 42.32 6 43 C7.01633009 47.23470871 7.38689107 49.26920575 5.3125 53.1875 C3.31408979 55.6179989 1.30430783 57.86028558 -1 60 C-1.495 59.505 -1.495 59.505 -2 59 C-1.97679687 58.41089844 -1.95359375 57.82179687 -1.9296875 57.21484375 C-1.86383618 54.47260677 -2.03921723 52.58798081 -3 50 C-5.72875671 47.68713467 -8.61323656 45.84212842 -11.61328125 43.8984375 C-12.40089844 43.27195313 -13.18851563 42.64546875 -14 42 C-14.25 38.5 -14.25 38.5 -14 35 C-15.64460744 32.67296525 -17.46538526 30.72245814 -19.46875 28.69921875 C-21 27 -21 27 -21 25 C-21.61875 24.896875 -22.2375 24.79375 -22.875 24.6875 C-25 24 -25 24 -27 21 C-27.125 18.3125 -27.125 18.3125 -27 16 C-25.3125 14.8125 -25.3125 14.8125 -23 14 C-20.25 15.375 -20.25 15.375 -18 17 C-18.020625 15.72125 -18.04125 14.4425 -18.0625 13.125 C-18.125 9.25 -18.125 9.25 -17 7 C-16.01 6.67 -15.02 6.34 -14 6 C-13.03100083 4.22350151 -12.06228386 2.44684476 -11.09765625 0.66796875 C-10 -1 -10 -1 -7.5625 -2.625 C-4.12945886 -3.12739626 -2.72266701 -2.02255264 0 0 Z " fill="#F4F4F4" transform="translate(199,141)"/>
  <path d="M0 0 C3.44989489 3.33189044 6.46920226 6.40760677 8 11 C8 14.3 8 17.6 8 21 C-1.9 21.33 -11.8 21.66 -22 22 C-18.72171131 26.81375192 -18.72171131 26.81375192 -16 28 C-14.35744209 28.12114921 -12.70947522 28.17540767 -11.0625 28.1875 C-9.74958984 28.20876953 -9.74958984 28.20876953 -8.41015625 28.23046875 C-5.73755665 28.16663349 -5.73755665 28.16663349 -3 26 C0.79344475 26.24473837 2.53580477 28.27178385 5 31 C3.61497412 34.43370999 2.36875613 35.73405974 -1 37.25 C-8.41200484 40.25518786 -15.55354197 39.79210306 -22.96484375 36.96875 C-28.38261829 34.38984772 -31.88732759 30.70813944 -34.30078125 25.30078125 C-36.21741813 18.99408225 -35.90000006 13.02057131 -32.9375 7.125 C-30.04577241 2.54095456 -26.41060815 -0.87752137 -21.1484375 -2.609375 C-13.95273662 -3.91768425 -6.29421052 -3.94930856 0 0 Z " fill="#8E65C3" transform="translate(108,273)"/>
  <path d="M0 0 C5.33157143 2.33514563 8.58871416 6.45061327 11.515625 11.3828125 C12.515625 14.3828125 12.515625 14.3828125 12.515625 23.3828125 C2.285625 23.3828125 -7.944375 23.3828125 -18.484375 23.3828125 C-16.10045459 28.2654089 -16.10045459 28.2654089 -13.234375 29.6953125 C-6.73032737 31.32132441 -2.31041116 30.23638123 3.515625 27.3828125 C6.078125 29.6328125 6.078125 29.6328125 8.515625 32.3828125 C8.578125 34.5078125 8.578125 34.5078125 7.515625 36.3828125 C1.86380243 41.46945281 -5.11642347 40.86110261 -12.2890625 40.73046875 C-18.95186652 40.37925345 -22.45905526 37.56802591 -26.859375 32.8203125 C-31.08476805 26.48222292 -31.36966478 20.94390987 -30.484375 13.3828125 C-28.21337441 7.40501342 -24.11381459 3.64404348 -18.75390625 0.3046875 C-13.15950189 -1.96773837 -5.78090152 -1.43613591 0 0 Z " fill="#8D64C3" transform="translate(472.484375,270.6171875)"/>
  <path d="M0 0 C4.42639756 2.72833987 7.76326226 6.67463583 9.5 11.5625 C9.5 15.1925 9.5 18.8225 9.5 22.5625 C-0.4 22.5625 -10.3 22.5625 -20.5 22.5625 C-17.99943407 27.53871743 -17.99943407 27.53871743 -14.5 29.5625 C-8.47809337 30.46111785 -3.84260484 29.29063864 1.5 26.5625 C3.975 29.5325 3.975 29.5325 6.5 32.5625 C5.04163185 36.40728875 3.13541701 37.7447915 -0.5 39.5625 C-7.80721016 41.79655151 -15.59467709 41.39853434 -22.421875 37.97265625 C-26.97676612 34.88183727 -30.75245727 30.8051282 -32.5 25.5625 C-33.40692834 13.59401948 -33.40692834 13.59401948 -30.9375 8.0625 C-22.37949617 -0.71493982 -12.40186948 -5.29788599 0 0 Z " fill="#8D64C3" transform="translate(287.5,271.4375)"/>
  <path d="M0 0 C4.42639756 2.72833987 7.76326226 6.67463583 9.5 11.5625 C9.5 15.1925 9.5 18.8225 9.5 22.5625 C-0.4 22.5625 -10.3 22.5625 -20.5 22.5625 C-17.99943407 27.53871743 -17.99943407 27.53871743 -14.5 29.5625 C-8.47809337 30.46111785 -3.84260484 29.29063864 1.5 26.5625 C3.975 29.5325 3.975 29.5325 6.5 32.5625 C5.04163185 36.40728875 3.13541701 37.7447915 -0.5 39.5625 C-7.80721016 41.79655151 -15.59467709 41.39853434 -22.421875 37.97265625 C-26.97676612 34.88183727 -30.75245727 30.8051282 -32.5 25.5625 C-33.40692834 13.59401948 -33.40692834 13.59401948 -30.9375 8.0625 C-22.37949617 -0.71493982 -12.40186948 -5.29788599 0 0 Z " fill="#8D64C3" transform="translate(152.5,271.4375)"/>
  <path d="M0 0 C0.77666016 0.00128906 1.55332031 0.00257813 2.35351562 0.00390625 C6.91343729 0.07340548 10.65022687 0.66009075 14.9375 2.375 C14.4395163 6.10987777 14.06258244 8.18737635 11.9375 11.375 C11.25300781 11.21128906 10.56851562 11.04757812 9.86328125 10.87890625 C6.5631722 10.31052966 3.47195931 10.27869233 0.125 10.3125 C-1.61716797 10.32603516 -1.61716797 10.32603516 -3.39453125 10.33984375 C-4.27496094 10.35144531 -5.15539062 10.36304688 -6.0625 10.375 C-6.7225 11.695 -7.3825 13.015 -8.0625 14.375 C-6.82113281 14.62894531 -5.57976562 14.88289063 -4.30078125 15.14453125 C-2.6587517 15.49170321 -1.01683019 15.83938643 0.625 16.1875 C1.44162109 16.35314453 2.25824219 16.51878906 3.09960938 16.68945312 C9.02908813 17.96177043 13.42271266 19.102819 16.9375 24.375 C17.6264579 28.65294787 17.47169103 32.28233652 15.5625 36.1875 C9.19588351 41.49301374 2.16018808 43.03562842 -6.01171875 42.78125 C-11.00103836 42.11685917 -15.47679055 40.39704511 -20.0625 38.375 C-18.97181332 34.59954612 -18.1541909 31.90456528 -15.0625 29.375 C-14.38832031 29.70242188 -13.71414063 30.02984375 -13.01953125 30.3671875 C-9.44748546 31.58460865 -6.51538353 31.570381 -2.75 31.5 C-1.49574219 31.48195313 -0.24148438 31.46390625 1.05078125 31.4453125 C2.00339844 31.42210937 2.95601563 31.39890625 3.9375 31.375 C4.2675 30.385 4.5975 29.395 4.9375 28.375 C1.66581267 26.48086523 -1.20554196 25.96530775 -4.9375 25.5 C-10.82817396 24.58048016 -14.71587516 23.4682782 -18.4375 18.5625 C-19.63812409 14.3603157 -19.60855332 10.75619369 -18 6.6875 C-12.93840682 0.64624363 -7.44477173 -0.23594773 0 0 Z " fill="#8F66C4" transform="translate(370.0625,269.625)"/>
  <path d="M0 0 C1.03382812 0.00386719 2.06765625 0.00773438 3.1328125 0.01171875 C5.875 0.3125 5.875 0.3125 8.875 2.3125 C8.215 4.9525 7.555 7.5925 6.875 10.3125 C5.59625 10.27125 4.3175 10.23 3 10.1875 C0.85628508 10.07037127 0.85628508 10.07037127 -1.125 10.3125 C-3.48453094 12.67203094 -3.61641413 14.09145617 -4.125 17.3125 C-0.825 17.3125 2.475 17.3125 5.875 17.3125 C5.875 20.2825 5.875 23.2525 5.875 26.3125 C2.575 26.3125 -0.725 26.3125 -4.125 26.3125 C-4.125 36.5425 -4.125 46.7725 -4.125 57.3125 C-8.085 57.3125 -12.045 57.3125 -16.125 57.3125 C-16.125 47.0825 -16.125 36.8525 -16.125 26.3125 C-18.105 26.3125 -20.085 26.3125 -22.125 26.3125 C-22.125 23.3425 -22.125 20.3725 -22.125 17.3125 C-20.145 17.3125 -18.165 17.3125 -16.125 17.3125 C-16.09921875 16.72082031 -16.0734375 16.12914062 -16.046875 15.51953125 C-15.66959418 10.26332343 -15.11441268 7.08027864 -11.125 3.3125 C-7.29825568 0.57816539 -4.68533296 -0.07632748 0 0 Z " fill="#8D65C3" transform="translate(35.125,253.6875)"/>
  <path d="M0 0 C3.96 0 7.92 0 12 0 C12 3.3 12 6.6 12 10 C15.3 10 18.6 10 22 10 C22 12.97 22 15.94 22 19 C18.7 19 15.4 19 12 19 C12.14014682 22.3128323 12.28683615 25.62514408 12.4375 28.9375 C12.47681641 29.88302734 12.51613281 30.82855469 12.55664062 31.80273438 C12.59853516 32.70185547 12.64042969 33.60097656 12.68359375 34.52734375 C12.72025146 35.35999756 12.75690918 36.19265137 12.79467773 37.05053711 C12.79367103 39.00338858 12.79367103 39.00338858 14 40 C16.67058851 40.14115161 19.32432238 40.04247107 22 40 C22.99 42.64 23.98 45.28 25 48 C21.09756039 51.02124357 17.98743603 51.46764706 13.2109375 51.28515625 C8.57911991 50.68776635 5.8102351 48.87592984 2.6875 45.5 C0.2797208 41.93291971 -0.12311042 39.31321853 -0.09765625 35.11328125 C-0.09443359 34.17548828 -0.09121094 33.23769531 -0.08789062 32.27148438 C-0.07951172 31.29501953 -0.07113281 30.31855469 -0.0625 29.3125 C-0.05798828 28.32443359 -0.05347656 27.33636719 -0.04882812 26.31835938 C-0.03704303 23.87884526 -0.02059011 21.43945311 0 19 C-1.98 19 -3.96 19 -6 19 C-6 16.03 -6 13.06 -6 10 C-4.02 10 -2.04 10 0 10 C0 6.7 0 3.4 0 0 Z " fill="#8D63C2" transform="translate(415,261)"/>
  <path d="M0 0 C3.96 0 7.92 0 12 0 C12 1.32 12 2.64 12 4 C12.825 3.34 13.65 2.68 14.5 2 C18.34492481 -0.61234126 21.45655064 -0.31334134 26 0 C26 3.63 26 7.26 26 11 C22.24023438 11.53710938 22.24023438 11.53710938 18.48046875 12.07421875 C15.12295578 13.32733776 14.56782814 14.82653794 13 18 C12.50479234 20.69442447 12.50479234 20.69442447 12.48828125 23.51953125 C12.45283203 24.54111328 12.41738281 25.56269531 12.38085938 26.61523438 C12.34702148 28.19788086 12.34702148 28.19788086 12.3125 29.8125 C12.27833984 30.88693359 12.24417969 31.96136719 12.20898438 33.06835938 C12.12674157 35.71187813 12.06168807 38.35592174 12 41 C8.04 41 4.08 41 0 41 C0 27.47 0 13.94 0 0 Z " fill="#8F67C4" transform="translate(45,270)"/>
  <path d="M0 0 C0.66 0.33 1.32 0.66 2 1 C3.87056791 1.2275015 5.74685958 1.40962811 7.625 1.5625 C8.62789063 1.64628906 9.63078125 1.73007813 10.6640625 1.81640625 C11.43492187 1.87699219 12.20578125 1.93757812 13 2 C13 2.66 13 3.32 13 4 C13.66 4 14.32 4 15 4 C15.20625 4.639375 15.4125 5.27875 15.625 5.9375 C16.88678741 8.29127163 16.88678741 8.29127163 19.875 8.9375 C22.94662694 9.24644753 22.94662694 9.24644753 25.1875 7.875 C27.14164522 6.00322731 27.14164522 6.00322731 28.5625 3.3125 C29.036875 2.549375 29.51125 1.78625 30 1 C30.99 1 31.98 1 33 1 C33.495 4.465 33.495 4.465 34 8 C33.34 8.33 32.68 8.66 32 9 C32.66 9 33.32 9 34 9 C34.66 8.34 35.32 7.68 36 7 C39.125 7.375 39.125 7.375 42 8 C42.35773958 11.75626559 42.13556761 13.73929307 40.375 17.125 C36.74898865 21.51438216 33.92799246 23.67866792 28.25 24.625 C22.67103146 24.29368195 18.24011042 21.46853774 14 18 C10.23155357 13.66057683 7.89288189 9.70842469 7 4 C5.02 4.33 3.04 4.66 1 5 C1 5.66 1 6.32 1 7 C2.32 7 3.64 7 5 7 C5 8.65 5 10.3 5 12 C4.67 11.34 4.34 10.68 4 10 C3.21625 10.04125 2.4325 10.0825 1.625 10.125 C-1 10 -1 10 -3 8 C-2.64700993 4.55834679 -1.95418308 2.93127462 0 0 Z " fill="#F7F7F7" transform="translate(272,152)"/>
  <path d="M0 0 C0.66 0.33 1.32 0.66 2 1 C2 1.99 2 2.98 2 4 C0.68 4 -0.64 4 -2 4 C-2.59732819 6.76264289 -3 9.16032769 -3 12 C-3.99 11.67 -4.98 11.34 -6 11 C-9.38331539 11.95940586 -12.54381234 13.50254676 -15.75 14.9375 C-16.63171875 15.30423828 -17.5134375 15.67097656 -18.421875 16.04882812 C-25.95649208 19.39567812 -30.83822757 23.76081699 -34.6015625 31.140625 C-37.51812931 40.00164479 -39.9595379 48.95906369 -42.1796875 58.01953125 C-42.36257324 58.76307861 -42.54545898 59.50662598 -42.73388672 60.27270508 C-42.8217041 60.8427124 -42.90952148 61.41271973 -43 62 C-41.04071644 63.95928356 -37.58658564 63.84941588 -34.93359375 64.3046875 C-31.13083929 65.20600613 -27.64020428 66.57810591 -24 68 C-23.90912109 66.08574219 -23.90912109 66.08574219 -23.81640625 64.1328125 C-23.73200432 62.46352984 -23.64735614 60.79425963 -23.5625 59.125 C-23.52318359 58.28324219 -23.48386719 57.44148438 -23.44335938 56.57421875 C-23.40146484 55.76855469 -23.35957031 54.96289062 -23.31640625 54.1328125 C-23.27974854 53.38918457 -23.24309082 52.64555664 -23.20532227 51.87939453 C-23 50 -23 50 -22 48 C-21.34 48 -20.68 48 -20 48 C-20 54.27 -20 60.54 -20 67 C-17.70482422 66.36771484 -17.70482422 66.36771484 -15.36328125 65.72265625 C-13.34637889 65.16918072 -11.32945044 64.61580028 -9.3125 64.0625 C-7.80139648 63.64581055 -7.80139648 63.64581055 -6.25976562 63.22070312 C-5.28330078 62.95322266 -4.30683594 62.68574219 -3.30078125 62.41015625 C-2.40528564 62.16402588 -1.50979004 61.91789551 -0.5871582 61.66430664 C3.8988486 60.51243116 8.43076766 59.74382852 13 59 C12.505 59.99 12.505 59.99 12 61 C9.0170339 61.59772099 6.03669195 61.74337815 3 62 C3.66 64.97 4.32 67.94 5 71 C5.886875 70.67 6.77375 70.34 7.6875 70 C10.78725237 69.0642257 12.81399222 68.58078845 16 69 C16.56976563 69.46664062 17.13953125 69.93328125 17.7265625 70.4140625 C20.64307245 72.44860381 23.28159529 72.95913501 26.75 73.6875 C27.92046875 73.93886719 29.0909375 74.19023437 30.296875 74.44921875 C31.18890625 74.63097656 32.0809375 74.81273437 33 75 C33 75.33 33 75.66 33 76 C27.55762043 76.35112126 23.82882037 76.15259746 18.8125 73.9375 C14.66091544 72.15187223 12.4133074 71.43695363 8 73 C5.35692062 74.29281057 2.75177111 75.62402857 0.171875 77.0390625 C-0.54484375 77.35617188 -1.2615625 77.67328125 -2 78 C-2.99 77.505 -2.99 77.505 -4 77 C0.75 74 0.75 74 3 74 C2.01 70.7 1.02 67.4 0 64 C-0.76666992 64.2172876 -1.53333984 64.4345752 -2.32324219 64.65844727 C-5.79606789 65.63659319 -9.27289198 66.59969319 -12.75 67.5625 C-13.9565625 67.90474609 -15.163125 68.24699219 -16.40625 68.59960938 C-18.14648438 69.07817383 -18.14648438 69.07817383 -19.921875 69.56640625 C-20.99018555 69.86490479 -22.05849609 70.16340332 -23.15917969 70.47094727 C-25.92126257 70.98533654 -27.39581066 70.94772713 -30 70 C-29.67 69.67 -29.34 69.34 -29 69 C-30.39235043 68.49038154 -31.78909118 67.99275091 -33.1875 67.5 C-33.96480469 67.2215625 -34.74210938 66.943125 -35.54296875 66.65625 C-38.13222779 65.9646832 -40.33257238 65.88629083 -43 66 C-42.77028802 68.54496689 -42.51701591 71.0838986 -42.25 73.625 C-42.188125 74.33785156 -42.12625 75.05070312 -42.0625 75.78515625 C-41.51136668 80.79128392 -40.24064631 83.98011431 -37 88 C-33.34481439 89.82759281 -29.79340577 89.00661617 -26 88 C-22.37633282 86.41933918 -18.88349375 84.59152451 -15.40966797 82.70727539 C-13.63302125 81.75359331 -11.8188398 80.87051986 -10 80 C-9.01 80.495 -9.01 80.495 -8 81 C-8.50450684 81.25168945 -9.00901367 81.50337891 -9.52880859 81.76269531 C-11.81722515 82.91296597 -14.09600128 84.08118876 -16.375 85.25 C-17.1690625 85.64574219 -17.963125 86.04148437 -18.78125 86.44921875 C-19.54179687 86.84238281 -20.30234375 87.23554688 -21.0859375 87.640625 C-21.7876709 87.99672852 -22.4894043 88.35283203 -23.21240234 88.71972656 C-25.32560648 90.23319863 -26.02941024 91.61963959 -27 94 C-27.33 93.01 -27.66 92.02 -28 91 C-29.216875 91.0825 -30.43375 91.165 -31.6875 91.25 C-34.78919353 91.2280799 -35.98504753 91.00797465 -38.8125 89.5 C-44.71202184 82.75768933 -44.38333057 75.51845711 -44 67 C-44.66 67 -45.32 67 -46 67 C-45.24256364 51.59879407 -40.93152282 31.07543309 -30.00390625 19.67578125 C-24.74253793 15.27592353 -18.57736057 13.17254909 -12.125 11.125 C-8.35291698 9.82867851 -6.41940828 8.92077713 -4.5 5.375 C-4.005 4.26125 -3.51 3.1475 -3 2 C-2.01 1.34 -1.02 0.68 0 0 Z " fill="#262626" transform="translate(182,176)"/>
  <path d="M0 0 C3.96 0 7.92 0 12 0 C12 13.53 12 27.06 12 41 C8.04 41 4.08 41 0 41 C0 27.47 0 13.94 0 0 Z " fill="#8F67C4" transform="translate(392,270)"/>
  <path d="M0 0 C0 0.66 0 1.32 0 2 C0.99 2.33 1.98 2.66 3 3 C3.19392201 8.52677733 2.7479503 12.75614911 1 18 C3.64 18.33 6.28 18.66 9 19 C9 19.33 9 19.66 9 20 C1.73325153 19.71390754 -4.5318717 18.41455512 -11.37109375 15.9375 C-16.53875714 14.09464827 -18.74263326 13.96874467 -24 16 C-26.09350689 12.5980513 -26.17942163 9.94727588 -26 6 C-25.07767578 5.83564453 -25.07767578 5.83564453 -24.13671875 5.66796875 C-23.32847656 5.50941406 -22.52023438 5.35085937 -21.6875 5.1875 C-20.88699219 5.03667969 -20.08648437 4.88585937 -19.26171875 4.73046875 C-16.72720713 3.91189591 -15.77726566 2.9278814 -14 1 C-9.46606413 -0.91432848 -4.61314029 -2.30657014 0 0 Z " fill="#F8F8F8" transform="translate(211,232)"/>
  <path d="M0 0 C3.6578218 2.03993908 5.66946174 3.50419262 8 7 C8.42740092 12.29977145 8.52351458 15.74748241 5 20 C2.25772005 22.14935455 0.45201608 22.93408099 -3 23.4375 C-6.77306522 22.88726132 -8.32400737 21.67599263 -11 19 C-13.52481154 15.51335549 -13.43474022 12.20248882 -13 8 C-9.75301878 2.06586192 -6.96213549 -0.81907476 0 0 Z " fill="#F8F7FA" transform="translate(328,279)"/>
  <path d="M0 0 C2.70035741 2.70035741 2.71576987 5.13079914 3.33984375 8.80859375 C4.09841397 11.32668778 5.17239337 12.1773063 7 14 C7.46002362 19.52028344 6.74172514 23.77482458 5 29 C4.01 29 3.02 29 2 29 C2 27.02 2 25.04 2 23 C-0.91652174 22.83318891 -0.91652174 22.83318891 -4 23 C-4.66 23.66 -5.32 24.32 -6 25 C-8.625 24.625 -8.625 24.625 -11 24 C-10.67 23.34 -10.34 22.68 -10 22 C-9.01 22.33 -8.02 22.66 -7 23 C-7.185625 22.401875 -7.37125 21.80375 -7.5625 21.1875 C-8 19 -8 19 -7 16 C-10.88223287 17.47257109 -11.97571082 19.47949708 -14 23 C-17 25 -17 25 -20.0625 24.8125 C-23 24 -23 24 -25 21 C-24.24451463 18.1524013 -23.31613642 15.63227284 -22 13 C-22 12.01 -22 11.02 -22 10 C-19.35261084 8.5393715 -18.10551666 8 -15 8 C-15.33 8.99 -15.66 9.98 -16 11 C-12.55549263 13.29633824 -10.06187717 13.54016485 -6 14 C-6 12.68 -6 11.36 -6 10 C-6 9.34 -6 8.68 -6 8 C-3.69 8.33 -1.38 8.66 1 9 C0.67 6.03 0.34 3.06 0 0 Z " fill="#353535" transform="translate(312,137)"/>
  <path d="M0 0 C0.33 0 0.66 0 1 0 C2.78428195 8.30009726 3.26796172 16.47010338 3.375 24.9375 C3.40078125 25.93209229 3.4265625 26.92668457 3.453125 27.95141602 C3.46939673 33.96737957 3.02353868 37.43214348 -1 42 C-3.98893229 44.18702362 -5.27944454 45 -9 45 C-8.7525 45.99 -8.505 46.98 -8.25 48 C-7.52309033 52.73945105 -9.60241469 56.0383247 -12 60 C-11.34 60 -10.68 60 -10 60 C-8.50859979 56.37802806 -7.2125738 52.72433382 -6 49 C-6.66 49 -7.32 49 -8 49 C-7.67 48.34 -7.34 47.68 -7 47 C-6.34 47.33 -5.68 47.66 -5 48 C-4.63010408 54.41152922 -4.63010408 54.41152922 -6.375 57.1875 C-6.91125 57.785625 -7.4475 58.38375 -8 59 C-8.69580267 60.31836295 -9.37224433 61.64791086 -10 63 C-11.32 62.67 -12.64 62.34 -14 62 C-15.15941038 65.47823115 -14.70820884 67.45895578 -14 71 C-14.66 70.01 -15.32 69.02 -16 68 C-18.1385485 65.8614515 -19.13275314 65.57344937 -22 65 C-22 64.01 -22 63.02 -22 62 C-21.67 62 -21.34 62 -21 62 C-20.81839899 58.00477772 -20.86986938 55.408209 -23 52 C-24.9290596 50.25283081 -24.9290596 50.25283081 -27.125 48.75 C-27.84945312 48.22921875 -28.57390625 47.7084375 -29.3203125 47.171875 C-29.87460938 46.78515625 -30.42890625 46.3984375 -31 46 C-26.58244836 46 -24.35107332 48.16550036 -20.96484375 50.84375 C-18.20923046 53.86780275 -17.96230811 56.28638273 -17.90234375 60.27734375 C-17.93457031 60.84582031 -17.96679688 61.41429687 -18 62 C-12.92242025 56.61186491 -11 53.54581054 -11 46 C-11.77085937 45.96261719 -12.54171875 45.92523438 -13.3359375 45.88671875 C-14.33882812 45.82097656 -15.34171875 45.75523437 -16.375 45.6875 C-17.87160156 45.60048828 -17.87160156 45.60048828 -19.3984375 45.51171875 C-20.25695312 45.34285156 -21.11546875 45.17398438 -22 45 C-22.66 44.01 -23.32 43.02 -24 42 C-23.42894531 42.15984375 -22.85789063 42.3196875 -22.26953125 42.484375 C-15.58240271 44.00365377 -9.98890296 43.2340076 -4 40 C-2.01970318 38.93654948 -2.01970318 38.93654948 -1 37 C0.21581462 31.12356267 -0.11155527 25.90474035 -1 20 C-1.99 20.33 -2.98 20.66 -4 21 C-4.495 18.525 -4.495 18.525 -5 16 C-6.32 15.67 -7.64 15.34 -9 15 C-9 14.01 -9 13.02 -9 12 C-6.36 11.34 -3.72 10.68 -1 10 C-0.67 6.7 -0.34 3.4 0 0 Z " fill="#323232" transform="translate(216,138)"/>
  <path d="M0 0 C5 1 5 1 7.01953125 3.50390625 C7.61121094 4.51324219 8.20289063 5.52257812 8.8125 6.5625 C9.41707031 7.57441406 10.02164062 8.58632813 10.64453125 9.62890625 C11.09183594 10.41136719 11.53914063 11.19382812 12 12 C14.21676684 9.28907888 16.18559242 6.69261255 18 3.6875 C18.99 2.3571875 18.99 2.3571875 20 1 C21.32 1 22.64 1 24 1 C24 7.93 24 14.86 24 22 C22.68 22 21.36 22 20 22 C19.67 18.37 19.34 14.74 19 11 C17.35 13.97 15.7 16.94 14 20 C10 19 10 19 8.734375 17.37109375 C7.82291667 15.58072917 6.91145833 13.79036458 6 12 C5.67 15.3 5.34 18.6 5 22 C3.35 22 1.7 22 0 22 C0 14.74 0 7.48 0 0 Z " fill="#0B0B0B" transform="translate(273,329)"/>
  <path d="M0 0 C-0.64291992 0.24476074 -1.28583984 0.48952148 -1.94824219 0.74169922 C-4.15307548 1.79305298 -4.15307548 1.79305298 -4.63769531 3.87939453 C-4.70053711 4.62302246 -4.76337891 5.36665039 -4.828125 6.1328125 C-4.94414062 7.34130859 -4.94414062 7.34130859 -5.0625 8.57421875 C-5.1553125 9.83685547 -5.1553125 9.83685547 -5.25 11.125 C-5.36601562 12.39923828 -5.36601562 12.39923828 -5.484375 13.69921875 C-5.67303293 15.79803818 -5.83870349 17.8989007 -6 20 C-6.66 20 -7.32 20 -8 20 C-8.495 17.525 -8.495 17.525 -9 15 C-10.36125 16.2375 -10.36125 16.2375 -11.75 17.5 C-14.53624497 20.03294997 -14.87258261 20 -19 20 C-19.33 20.66 -19.66 21.32 -20 22 C-21.25433458 18.23699626 -21.10695422 14.72789091 -21.0625 10.8125 C-21.05798828 10.06291016 -21.05347656 9.31332031 -21.04882812 8.54101562 C-21.03706354 6.69397617 -21.01912865 4.84697787 -21 3 C-22.32 2.67 -23.64 2.34 -25 2 C-16.6030674 0.62707087 -8.51372785 -0.31274919 0 0 Z " fill="#161616" transform="translate(241,248)"/>
  <path d="M0 0 C1.98 0 3.96 0 6 0 C7.50605402 3.28893003 9.00380532 6.58157446 10.5 9.875 C10.92925781 10.81214844 11.35851562 11.74929688 11.80078125 12.71484375 C12.40986328 14.05869141 12.40986328 14.05869141 13.03125 15.4296875 C13.40830078 16.25710449 13.78535156 17.08452148 14.17382812 17.93701172 C15 20 15 20 15 22 C13.35 22 11.7 22 10 22 C9.34 20.68 8.68 19.36 8 18 C4.7 18 1.4 18 -2 18 C-2.66 19.32 -3.32 20.64 -4 22 C-5.65 22 -7.3 22 -9 22 C-6.19827683 14.5708406 -3.33402609 7.20820167 0 0 Z " fill="#0D0D0D" transform="translate(253,329)"/>
  <path d="M0 0 C5.61 0 11.22 0 17 0 C17 1.32 17 2.64 17 4 C13.04 4 9.08 4 5 4 C5 5.65 5 7.3 5 9 C8.63 9 12.26 9 16 9 C16 10.32 16 11.64 16 13 C12.7 13 9.4 13 6 13 C6 14.65 6 16.3 6 18 C9.63 18 13.26 18 17 18 C17 19.32 17 20.64 17 22 C11.39 22 5.78 22 0 22 C0 14.74 0 7.48 0 0 Z " fill="#161616" transform="translate(223,329)"/>
  <path d="M0 0 C6.91307004 3.07079479 10.81869896 8.87137927 13.62109375 15.73046875 C16.58783545 23.73791654 17.12439733 31.55699972 17.625 40 C17.8121983 42.91771151 18.01255933 45.83413209 18.2265625 48.75 C18.277556 49.4531282 18.3285495 50.15625641 18.38108826 50.88069153 C18.83879521 56.46505863 19.92355446 61.76841644 21.3737793 67.1862793 C22.32601635 71.46484929 22.26549012 75.64399546 22 80 C21.01 80 20.02 80 19 80 C16.45173531 65.82133656 14.4946359 51.78830957 13.77197266 37.3894043 C13.22944138 27.88637992 11.91534088 18.41659477 7.0625 10.0625 C6.54558594 9.17046875 6.02867187 8.2784375 5.49609375 7.359375 C3.83612338 4.74156273 2.07052612 2.30943298 0 0 Z " fill="#131313" transform="translate(316,186)"/>
  <path d="M0 0 C6.6 0 13.2 0 20 0 C19.67 1.65 19.34 3.3 19 5 C17.02 5 15.04 5 13 5 C13 10.61 13 16.22 13 22 C11.02 22 9.04 22 7 22 C7 16.39 7 10.78 7 5 C5.02 5 3.04 5 1 5 C0.67 3.35 0.34 1.7 0 0 Z " fill="#2B2B2B" transform="translate(199,329)"/>
  <path d="M0 0 C0.99 0.86625 1.98 1.7325 3 2.625 C6.86190708 5.94197541 10.89447006 8.99283262 15 12 C13.74194623 16.50802601 12.09592835 19.4912812 9 23 C6 22 6 22 4.71875 19.92578125 C4.3165625 19.06339844 3.914375 18.20101562 3.5 17.3125 C2.11426798 14.36467006 0.73149737 11.52564536 -0.875 8.6875 C-2.17223567 5.58854813 -2.07748526 4.14266535 -1 1 C-0.67 0.67 -0.34 0.34 0 0 Z " fill="#D4D4D4" transform="translate(180,179)"/>
  <path d="M0 0 C0.66 0 1.32 0 2 0 C2 13.53 2 27.06 2 41 C5.96 41 9.92 41 14 41 C13.67 41.66 13.34 42.32 13 43 C9.37 43 5.74 43 2 43 C2 52.24 2 61.48 2 71 C1.34 71 0.68 71 0 71 C0 61.76 0 52.52 0 43 C-3.96 43 -7.92 43 -12 43 C-12 42.67 -12 42.34 -12 42 C-8.04 42 -4.08 42 0 42 C0 28.14 0 14.28 0 0 Z " fill="#202020" transform="translate(295,198)"/>
  <path d="M0 0 C0.99 0 1.98 0 3 0 C3 6.27 3 12.54 3 19 C5.29517578 18.36771484 5.29517578 18.36771484 7.63671875 17.72265625 C9.65362111 17.16918072 11.67054956 16.61580028 13.6875 16.0625 C14.69490234 15.78470703 15.70230469 15.50691406 16.74023438 15.22070312 C18.20493164 14.81948242 18.20493164 14.81948242 19.69921875 14.41015625 C21.04246216 14.04096069 21.04246216 14.04096069 22.4128418 13.66430664 C26.8988486 12.51243116 31.43076766 11.74382852 36 11 C35.67 11.66 35.34 12.32 35 13 C32.0170339 13.59772099 29.03669195 13.74337815 26 14 C26.66 16.97 27.32 19.94 28 23 C28.886875 22.67 29.77375 22.34 30.6875 22 C33.78725237 21.0642257 35.81399222 20.58078845 39 21 C39.56976563 21.46664062 40.13953125 21.93328125 40.7265625 22.4140625 C43.64307245 24.44860381 46.28159529 24.95913501 49.75 25.6875 C50.92046875 25.93886719 52.0909375 26.19023437 53.296875 26.44921875 C54.18890625 26.63097656 55.0809375 26.81273437 56 27 C56 27.33 56 27.66 56 28 C50.55762043 28.35112126 46.82882037 28.15259746 41.8125 25.9375 C37.66091544 24.15187223 35.4133074 23.43695363 31 25 C28.35692062 26.29281057 25.75177111 27.62402857 23.171875 29.0390625 C22.45515625 29.35617188 21.7384375 29.67328125 21 30 C20.34 29.67 19.68 29.34 19 29 C23.75 26 23.75 26 26 26 C24.515 21.05 24.515 21.05 23 16 C21.10314453 16.55880859 21.10314453 16.55880859 19.16796875 17.12890625 C17.50794161 17.60721915 15.84777818 18.08505921 14.1875 18.5625 C13.35412109 18.80935547 12.52074219 19.05621094 11.66210938 19.31054688 C10.45844727 19.65375977 10.45844727 19.65375977 9.23046875 20.00390625 C8.12288208 20.32597046 8.12288208 20.32597046 6.99291992 20.65454102 C5 21 5 21 2 20 C0 18 0 18 -0.22705078 16.12060547 C-0.21657715 15.37697754 -0.20610352 14.63334961 -0.1953125 13.8671875 C-0.18886719 13.06152344 -0.18242187 12.25585938 -0.17578125 11.42578125 C-0.15064453 10.16314453 -0.15064453 10.16314453 -0.125 8.875 C-0.11597656 8.02550781 -0.10695312 7.17601562 -0.09765625 6.30078125 C-0.07405647 4.20040116 -0.03818483 2.10016556 0 0 Z " fill="#424242" transform="translate(159,224)"/>
  <path d="M0 0 C2.9375 1.5625 2.9375 1.5625 5 4 C5 7.625 5 7.625 4 11 C0.22930016 13.5137999 -2.56853311 13.74781004 -7 13 C-9.45636081 10.92744557 -9.88864581 9.63630966 -10.4375 6.5 C-9.41252266 0.64298662 -5.5041952 -0.89864411 0 0 Z " fill="#9068C4" transform="translate(401,251)"/>
  <path d="M0 0 C0.33 0 0.66 0 1 0 C1.01458252 0.79470703 1.02916504 1.58941406 1.04418945 2.40820312 C1.43670277 23.87721642 1.43670277 23.87721642 5 45 C6.51011646 51.21541835 7.20406303 56.57201469 7 63 C6.01 63 5.02 63 4 63 C3.80664062 61.74445313 3.61328125 60.48890625 3.4140625 59.1953125 C3.15115467 57.50519075 2.88812741 55.81508758 2.625 54.125 C2.49867188 53.30257812 2.37234375 52.48015625 2.2421875 51.6328125 C1.59268669 47.47600729 0.86142396 43.39142122 -0.08984375 39.29296875 C-1.44825659 32.63387777 -1.2524174 25.95599338 -1.1875 19.1875 C-1.18685547 17.89134766 -1.18621094 16.59519531 -1.18554688 15.25976562 C-1.13720855 4.86702572 -1.13720855 4.86702572 0 0 Z " fill="#2C2C2C" transform="translate(323,202)"/>
  <path d="M0 0 C1.11375 0.639375 2.2275 1.27875 3.375 1.9375 C8.14645698 4.35743248 12.71244433 4.7832969 18 5 C18 8.58912412 17.33563446 9.10857029 15 11.6875 C14.443125 12.31011719 13.88625 12.93273437 13.3125 13.57421875 C12.879375 14.04472656 12.44625 14.51523438 12 15 C7.86186295 14.46823005 5.72917682 12.22067834 2.75 9.4375 C1.85796875 8.61121094 0.9659375 7.78492188 0.046875 6.93359375 C-0.62859375 6.29550781 -1.3040625 5.65742188 -2 5 C-1.34 3.35 -0.68 1.7 0 0 Z " fill="#F3F3F3" transform="translate(285,176)"/>
  <path d="M0 0 C3.63 0 7.26 0 11 0 C9.65685914 10.25671203 9.65685914 10.25671203 6.625 13.6875 C4 15 4 15 0 15 C0 10.05 0 5.1 0 0 Z " fill="#F5F5F5" transform="translate(221,251)"/>
  <path d="M0 0 C2.453125 0.42578125 2.453125 0.42578125 5.578125 2.73828125 C7.453125 5.42578125 7.453125 5.42578125 7.453125 8.42578125 C0.853125 8.42578125 -5.746875 8.42578125 -12.546875 8.42578125 C-9.55721639 0.95163473 -7.8345066 -0.21762518 0 0 Z " fill="#F5F3F7" transform="translate(278.546875,278.57421875)"/>
  <path d="M0 0 C2.453125 0.42578125 2.453125 0.42578125 5.578125 2.73828125 C7.453125 5.42578125 7.453125 5.42578125 7.453125 8.42578125 C0.853125 8.42578125 -5.746875 8.42578125 -12.546875 8.42578125 C-9.55721639 0.95163473 -7.8345066 -0.21762518 0 0 Z " fill="#F5F3F7" transform="translate(143.546875,278.57421875)"/>
  <path d="M0 0 C3.0625 1.75 3.0625 1.75 5 4 C5 5.32 5 6.64 5 8 C-1.27 8 -7.54 8 -14 8 C-13 3 -13 3 -11.5 1.1875 C-7.68663117 -0.6238502 -4.14179119 -0.6706459 0 0 Z " fill="#F6F5F7" transform="translate(468,279)"/>
  <path d="M0 0 C3.91735038 0.7261755 5.64408033 2.50090507 8.296875 5.42578125 C8.296875 6.41578125 8.296875 7.40578125 8.296875 8.42578125 C1.696875 8.42578125 -4.903125 8.42578125 -11.703125 8.42578125 C-8.9004239 1.41902851 -7.38943689 -0.22941062 0 0 Z " fill="#F6F5F7" transform="translate(96.703125,278.57421875)"/>
  <path d="M0 0 C0.33 0 0.66 0 1 0 C2.87387655 9.77092772 3.22867275 19.10355133 3 29 C2.01 29 1.02 29 0 29 C-0.33 26.03 -0.66 23.06 -1 20 C-1.99 20.33 -2.98 20.66 -4 21 C-4.33 19.35 -4.66 17.7 -5 16 C-6.32 15.67 -7.64 15.34 -9 15 C-9 14.01 -9 13.02 -9 12 C-6.36 11.34 -3.72 10.68 -1 10 C-0.67 6.7 -0.34 3.4 0 0 Z " fill="#484848" transform="translate(216,138)"/>
  <path d="M0 0 C0.33 0 0.66 0 1 0 C1.125 2.375 1.125 2.375 1 5 C0.34 5.66 -0.32 6.32 -1 7 C-2.07382738 11.73621876 -2.29582059 16.53979633 -2.5625 21.375 C-2.60568359 22.11105469 -2.64886719 22.84710938 -2.69335938 23.60546875 C-2.79843799 25.40348068 -2.89962093 27.20171958 -3 29 C-3.99 29 -4.98 29 -6 29 C-6 22.4 -6 15.8 -6 9 C-10.75749656 9.40645973 -10.75749656 9.40645973 -15.51269531 9.83837891 C-19.38583783 10.13318776 -21.65454142 9.89231537 -25 8 C-24.44538086 7.94465088 -23.89076172 7.88930176 -23.31933594 7.83227539 C-20.7959083 7.57871893 -18.27296117 7.32065495 -15.75 7.0625 C-14.87730469 6.97548828 -14.00460938 6.88847656 -13.10546875 6.79882812 C-12.26113281 6.71181641 -11.41679687 6.62480469 -10.546875 6.53515625 C-9.77182617 6.456604 -8.99677734 6.37805176 -8.19824219 6.29711914 C-6.03716159 6.00502284 -4.0611 5.72003861 -2 5 C-0.70339566 2.50965614 -0.70339566 2.50965614 0 0 Z " fill="#0D0D0D" transform="translate(262,239)"/>
  <path d="M0 0 C4.10899581 1.12795963 8.07561214 2.33510818 12 4 C11.67 6.31 11.34 8.62 11 11 C13.64 11.33 16.28 11.66 19 12 C19 12.33 19 12.66 19 13 C10.76557056 12.67580986 3.70210288 10.88996879 -4 8 C-3.67 7.01 -3.34 6.02 -3 5 C0.05847848 4.45627049 2.88772805 4 6 4 C4.02 3.34 2.04 2.68 0 2 C0 1.34 0 0.68 0 0 Z " fill="#606060" transform="translate(201,239)"/>
  <path d="M0 0 C7.12200815 3.16360537 10.94375114 9.16949549 13.875 16.1875 C16.21661692 22.74402739 16.87525027 29.07071981 17 36 C16.01 36.66 15.02 37.32 14 38 C13.89042969 37.10539062 13.78085937 36.21078125 13.66796875 35.2890625 C11.84831552 21.41235736 8.57912765 11.18350569 0 0 Z " fill="#1E1E1E" transform="translate(316,186)"/>
  <path d="M0 0 C0.33 0 0.66 0 1 0 C1.2475 1.27875 1.495 2.5575 1.75 3.875 C2.25313963 6.07510448 2.25313963 6.07510448 3 8 C4.86644906 9.18330183 4.86644906 9.18330183 7 10 C8.3726682 11.97321053 9.70427617 13.97543152 11 16 C11.763125 16.639375 12.52625 17.27875 13.3125 17.9375 C15 20 15 20 14.75 23.75 C14.37875 25.35875 14.37875 25.35875 14 27 C13.01 26.01 12.02 25.02 11 24 C11.66 24 12.32 24 13 24 C12.24849977 20.72226496 12.24849977 20.72226496 9 19 C9 18.34 9 17.68 9 17 C8.236875 16.855625 7.47375 16.71125 6.6875 16.5625 C4 16 4 16 1 15 C-0.03548394 10.41428541 -0.78633888 5.70054457 -1 1 C-0.67 0.67 -0.34 0.34 0 0 Z " fill="#111111" transform="translate(171,156)"/>
  <path d="M0 0 C4.29 0 8.58 0 13 0 C12.43580763 12.55328012 10.29420412 24.66327207 8 37 C7.34 36.34 6.68 35.68 6 35 C6.10691756 32.57755367 6.33443687 30.32676829 6.6875 27.9375 C6.78272949 27.23882812 6.87795898 26.54015625 6.97607422 25.8203125 C8.09707416 17.84403488 9.53004562 9.91815427 11 2 C7.37 1.67 3.74 1.34 0 1 C0 0.67 0 0.34 0 0 Z " fill="#3D3D3D" transform="translate(256,204)"/>
  <path d="M0 0 C0.66 0 1.32 0 2 0 C2.45647158 5.70589472 1.69917584 8.60098008 -2 13 C-4.98893229 15.18702362 -6.27944454 16 -10 16 C-10 17.98 -10 19.96 -10 22 C-10.66 21.67 -11.32 21.34 -12 21 C-12 19.68 -12 18.36 -12 17 C-12.77085937 16.96261719 -13.54171875 16.92523438 -14.3359375 16.88671875 C-15.33882812 16.82097656 -16.34171875 16.75523437 -17.375 16.6875 C-18.37273437 16.62949219 -19.37046875 16.57148438 -20.3984375 16.51171875 C-21.25695312 16.34285156 -22.11546875 16.17398438 -23 16 C-23.66 15.01 -24.32 14.02 -25 13 C-24.14341797 13.23976562 -24.14341797 13.23976562 -23.26953125 13.484375 C-16.58240271 15.00365377 -10.98890296 14.2340076 -5 11 C-1.13816797 8.46983419 -0.91015478 4.27072628 0 0 Z " fill="#1E1E1E" transform="translate(217,167)"/>
  <path d="M0 0 C0.33 1.32 0.66 2.64 1 4 C1.33 2.68 1.66 1.36 2 0 C3.32 0.66 4.64 1.32 6 2 C6.22223194 4.74086056 6.34781139 6.43963721 4.875 8.8125 C2.16554166 10.52849028 0.13704316 10.333728 -3 10 C-5 8 -5 8 -5.3125 5.5625 C-5 3 -5 3 -3.625 1.1875 C-2 0 -2 0 0 0 Z " fill="#ECECEC" transform="translate(293,150)"/>
  <path d="M0 0 C0.99 0 1.98 0 3 0 C3.09796875 1.08539063 3.1959375 2.17078125 3.296875 3.2890625 C3.44704676 4.73446565 3.59813732 6.17977353 3.75 7.625 C3.811875 8.33785156 3.87375 9.05070313 3.9375 9.78515625 C4.48863332 14.79128392 5.75935369 17.98011431 9 22 C12.65518561 23.82759281 16.20659423 23.00661617 20 22 C23.62366718 20.41933918 27.11650625 18.59152451 30.59033203 16.70727539 C32.36697875 15.75359331 34.1811602 14.87051986 36 14 C36.66 14.33 37.32 14.66 38 15 C37.49549316 15.25168945 36.99098633 15.50337891 36.47119141 15.76269531 C34.18277485 16.91296597 31.90399872 18.08118876 29.625 19.25 C28.8309375 19.64574219 28.036875 20.04148437 27.21875 20.44921875 C26.45820313 20.84238281 25.69765625 21.23554688 24.9140625 21.640625 C24.2123291 21.99672852 23.5105957 22.35283203 22.78759766 22.71972656 C20.67439352 24.23319863 19.97058976 25.61963959 19 28 C18.67 27.01 18.34 26.02 18 25 C16.783125 25.0825 15.56625 25.165 14.3125 25.25 C11.21080647 25.2280799 10.01495247 25.00797465 7.1875 23.5 C1.28797816 16.75768933 1.61666943 9.51845711 2 1 C1.34 0.67 0.68 0.34 0 0 Z " fill="#535353" transform="translate(136,242)"/>
  <path d="M0 0 C0.33 0 0.66 0 1 0 C1.91352882 7.04722236 -0.06474626 9.92716936 -4.30859375 15.45703125 C-6.80751101 19.2140639 -7.35702309 22.57060348 -8 27 C-9.32 27 -10.64 27 -12 27 C-11.28940044 19.92300841 -9.652564 16.0855027 -4.6875 11.02734375 C-1.97375711 7.76708319 -0.98874913 4.06799642 0 0 Z " fill="#232323" transform="translate(278,241)"/>
  <path d="M0 0 C1.0593653 1.97748189 1.94324626 3.64230211 2.296875 5.87109375 C3.28136893 8.85192258 4.98941324 10.23274802 7.3125 12.3125 C8.09238281 13.03050781 8.87226563 13.74851563 9.67578125 14.48828125 C11.83476082 16.20988882 11.83476082 16.20988882 14.12109375 15.921875 C16.26913117 14.86795228 17.30086755 13.82942293 18.75 11.9375 C19.4925 10.968125 20.235 9.99875 21 9 C21.99 9.33 22.98 9.66 24 10 C22.85459775 11.31287621 21.70866567 12.62529021 20.5625 13.9375 C19.92441406 14.66839844 19.28632813 15.39929688 18.62890625 16.15234375 C16.13110546 18.98558062 16.13110546 18.98558062 13.69140625 19.25390625 C8.91045963 18.80287355 6.16519514 15.3828023 3 12 C0.50990368 8.79941424 -1.10672818 6.25405612 -0.75 2.0625 C-0.5025 1.381875 -0.255 0.70125 0 0 Z " fill="#161616" transform="translate(282,174)"/>
  <path d="M0 0 C3.68802044 1.22934015 4.72356973 2.93859378 7 6 C6.34 7.32 5.68 8.64 5 10 C2.36 10 -0.28 10 -3 10 C-3.75 8.375 -3.75 8.375 -4 6 C-2.0625 2.75 -2.0625 2.75 0 0 Z " fill="#949494" transform="translate(244,222)"/>
  <path d="M0 0 C0 0.66 0 1.32 0 2 C0.99 2.33 1.98 2.66 3 3 C2.67 3.99 2.34 4.98 2 6 C1.34 5.67 0.68 5.34 0 5 C-3.31592816 5.0088307 -6.62016015 5.13193904 -9.93359375 5.2578125 C-13 5 -13 5 -14.91015625 3.4921875 C-15.26980469 2.99976563 -15.62945312 2.50734375 -16 2 C-5.05660377 -2.52830189 -5.05660377 -2.52830189 0 0 Z " fill="#A5A5A5" transform="translate(211,232)"/>
  <path d="M0 0 C2.85167721 2.76780435 5.60380787 5.59671945 8.25 8.5625 C8.75015625 9.12066406 9.2503125 9.67882812 9.765625 10.25390625 C12.70741808 14.41524013 12.08133792 19.11972486 12 24 C11.01 24 10.02 24 9 24 C8.88785156 22.71416016 8.88785156 22.71416016 8.7734375 21.40234375 C8.00720978 14.73916739 7.38268253 10.11313279 2.33984375 5.46484375 C0.73398833 3.70917091 0.40342299 2.31594681 0 0 Z " fill="#2B2B2B" transform="translate(310,241)"/>
  <path d="M0 0 C0.639375 0.804375 1.27875 1.60875 1.9375 2.4375 C3.40603502 4.2750504 3.40603502 4.2750504 5 6 C5.41221374 14.38167939 5.41221374 14.38167939 3 18 C2.34 17.67 1.68 17.34 1 17 C1 16.01 1 15.02 1 14 C0.34 13.67 -0.32 13.34 -1 13 C-0.98839844 12.37351563 -0.97679687 11.74703125 -0.96484375 11.1015625 C-0.95582031 10.28429687 -0.94679688 9.46703125 -0.9375 8.625 C-0.92009766 7.40683594 -0.92009766 7.40683594 -0.90234375 6.1640625 C-0.85533666 3.95062858 -0.85533666 3.95062858 -2 2 C-1.34 2 -0.68 2 0 2 C0 1.34 0 0.68 0 0 Z " fill="#0C0C0C" transform="translate(314,145)"/>
  <path d="M0 0 C3.63 0 7.26 0 11 0 C9.02 0.99 9.02 0.99 7 2 C6.26905133 3.90671835 6.26905133 3.90671835 6.171875 6.1328125 C6.09453125 6.93847656 6.0171875 7.74414062 5.9375 8.57421875 C5.875625 9.41597656 5.81375 10.25773437 5.75 11.125 C5.67265625 11.97449219 5.5953125 12.82398438 5.515625 13.69921875 C5.32696707 15.79803818 5.16129651 17.8989007 5 20 C4.34 20 3.68 20 3 20 C3 17.36 3 14.72 3 12 C2.34 12 1.68 12 1 12 C1 10.02 1 8.04 1 6 C1.99 6 2.98 6 4 6 C3.72382467 4.05925139 3.72382467 4.05925139 3 2 C2.01 1.34 1.02 0.68 0 0 Z " fill="#020202" transform="translate(230,248)"/>
  <path d="M0 0 C0.66 0.33 1.32 0.66 2 1 C3.87056791 1.2275015 5.74685958 1.40962811 7.625 1.5625 C8.62789063 1.64628906 9.63078125 1.73007813 10.6640625 1.81640625 C11.43492187 1.87699219 12.20578125 1.93757812 13 2 C13 2.33 13 2.66 13 3 C11.37548581 3.33569297 9.75037083 3.6684796 8.125 4 C6.76761719 4.2784375 6.76761719 4.2784375 5.3828125 4.5625 C3 5 3 5 1 5 C1 5.66 1 6.32 1 7 C2.32 7 3.64 7 5 7 C5 8.65 5 10.3 5 12 C4.67 11.34 4.34 10.68 4 10 C3.21625 10.04125 2.4325 10.0825 1.625 10.125 C-1 10 -1 10 -3 8 C-2.64700993 4.55834679 -1.95418308 2.93127462 0 0 Z " fill="#C2C2C2" transform="translate(272,152)"/>
  <path d="M0 0 C4.6752884 0.3374768 7.04999473 2.40905437 10.5 5.4375 C13.90022585 8.41269762 16.69069159 10.57137058 21 12 C21 12.66 21 13.32 21 14 C13.18044181 13.25528017 8.75361741 9.00675708 3.61328125 3.48828125 C1.95966345 1.75831413 1.95966345 1.75831413 -1 1 C-0.67 0.67 -0.34 0.34 0 0 Z " fill="#222222" transform="translate(270,182)"/>
  <path d="M0 0 C1.32 0.33 2.64 0.66 4 1 C4 3.97 4 6.94 4 10 C2.68 10.33 1.36 10.66 0 11 C-0.99 10.34 -1.98 9.68 -3 9 C-3.1875 5.875 -3.1875 5.875 -3 3 C-2.67 3.99 -2.34 4.98 -2 6 C-1.34 6 -0.68 6 0 6 C-0.2784375 4.7934375 -0.2784375 4.7934375 -0.5625 3.5625 C-0.706875 2.716875 -0.85125 1.87125 -1 1 C-0.67 0.67 -0.34 0.34 0 0 Z " fill="#E4E4E4" transform="translate(310,148)"/>
  <path d="M0 0 C1.07765625 0.11988281 2.1553125 0.23976562 3.265625 0.36328125 C4.08546875 0.47027344 4.9053125 0.57726562 5.75 0.6875 C5.42 1.6775 5.09 2.6675 4.75 3.6875 C2.77 3.6875 0.79 3.6875 -1.25 3.6875 C-1.25 5.3375 -1.25 6.9875 -1.25 8.6875 C-2.24 8.3575 -3.23 8.0275 -4.25 7.6875 C-4.25 6.3675 -4.25 5.0475 -4.25 3.6875 C-7.22 3.1925 -7.22 3.1925 -10.25 2.6875 C-6.80273592 -0.56731973 -4.61498646 -0.55179186 0 0 Z " fill="#353535" transform="translate(200.25,150.3125)"/>
  <path d="M0 0 C0.33 0 0.66 0 1 0 C2.6120509 6.76485645 3.26618595 13.04958914 3 20 C2.01 20 1.02 20 0 20 C-1.3734106 13.47629963 -1.87567019 6.46064175 0 0 Z " fill="#202020" transform="translate(335,246)"/>
  <path d="M0 0 C0.66 0 1.32 0 2 0 C1.67 1.98 1.34 3.96 1 6 C-3.97093824 5.58846263 -8.44508386 5.20399168 -13 3 C-12.67 2.34 -12.34 1.68 -12 1 C-7.83861737 0.91840426 -4.0527516 1.01751476 0 2 C0 1.34 0 0.68 0 0 Z " fill="#F7F7F7" transform="translate(210,244)"/>
  <path d="M0 0 C0.185625 0.61875 0.37125 1.2375 0.5625 1.875 C1.92878701 4.3850312 1.92878701 4.3850312 5.5 5 C9 6 9 6 10.5 7.9375 C11 10 11 10 10 13 C9.34 13 8.68 13 8 13 C8 11.02 8 9.04 8 7 C5.08347826 6.83318891 5.08347826 6.83318891 2 7 C1.34 7.66 0.68 8.32 0 9 C-2.625 8.625 -2.625 8.625 -5 8 C-4.67 7.34 -4.34 6.68 -4 6 C-3.01 6.33 -2.02 6.66 -1 7 C-1.20625 6.401875 -1.4125 5.80375 -1.625 5.1875 C-2 3 -2 3 0 0 Z " fill="#373737" transform="translate(306,153)"/>
  <path d="M0 0 C2.61627165 2.61627165 2.77669287 4.35265021 3 8 C1.6875 9.75 1.6875 9.75 0 11 C-0.66 11.66 -1.32 12.32 -2 13 C-2 14.32 -2 15.64 -2 17 C-2.66 17 -3.32 17 -4 17 C-4 15.68 -4 14.36 -4 13 C-4.66 12.67 -5.32 12.34 -6 12 C-6 10.68 -6 9.36 -6 8 C-3.69 8.33 -1.38 8.66 1 9 C0.67 6.03 0.34 3.06 0 0 Z " fill="#343434" transform="translate(312,137)"/>
  <path d="M0 0 C0 2.97 0 5.94 0 9 C-0.33 9 -0.66 9 -1 9 C-1 6.36 -1 3.72 -1 1 C-2.03640625 1.09539062 -3.0728125 1.19078125 -4.140625 1.2890625 C-5.51036729 1.40164406 -6.88016193 1.51358988 -8.25 1.625 C-8.93191406 1.68945312 -9.61382812 1.75390625 -10.31640625 1.8203125 C-14.1227049 2.11594735 -16.77809846 2.17561392 -20 0 C-13.16920852 -1.18225237 -6.87368733 -0.74464946 0 0 Z " fill="#515151" transform="translate(257,247)"/>
  <path d="M0 0 C0.66 0.33 1.32 0.66 2 1 C1.49549316 1.25168945 0.99098633 1.50337891 0.47119141 1.76269531 C-1.81722515 2.91296597 -4.09600128 4.08118876 -6.375 5.25 C-7.56609375 5.84361328 -7.56609375 5.84361328 -8.78125 6.44921875 C-9.54179687 6.84238281 -10.30234375 7.23554688 -11.0859375 7.640625 C-12.1385376 8.17478027 -12.1385376 8.17478027 -13.21240234 8.71972656 C-15.32560648 10.23319863 -16.02941024 11.61963959 -17 14 C-19 11 -19 11 -19 9 C-15.88112823 7.46635461 -12.75402378 5.95031107 -9.625 4.4375 C-8.73554688 3.99986328 -7.84609375 3.56222656 -6.9296875 3.11132812 C-6.07890625 2.70205078 -5.228125 2.29277344 -4.3515625 1.87109375 C-3.56604004 1.48880615 -2.78051758 1.10651855 -1.97119141 0.71264648 C-1.32069824 0.47747314 -0.67020508 0.2422998 0 0 Z " fill="#494949" transform="translate(172,256)"/>
  <path d="M0 0 C0.66 0.66 1.32 1.32 2 2 C0.35 6.62 -1.3 11.24 -3 16 C-3.66 16 -4.32 16 -5 16 C-4.49228528 10.03435204 -2.61407872 5.36190101 0 0 Z " fill="#1D1D1D" transform="translate(146,205)"/>
  <path d="M0 0 C2.625 0.375 2.625 0.375 5 1 C4.401875 1.268125 3.80375 1.53625 3.1875 1.8125 C0.15428611 3.45910182 -1.53922528 5.23204213 -3.3125 8.1875 C-5 10 -5 10 -8.1875 10.25 C-9.115625 10.1675 -10.04375 10.085 -11 10 C-11 9.34 -11 8.68 -11 8 C-10.071875 7.938125 -9.14375 7.87625 -8.1875 7.8125 C-4.83512336 7.32181759 -4.83512336 7.32181759 -3.25 4.5625 C-2.8375 3.716875 -2.425 2.87125 -2 2 C-1.34 1.34 -0.68 0.68 0 0 Z " fill="#1C1C1C" transform="translate(269,171)"/>
  <path d="M0 0 C0.99 0 1.98 0 3 0 C3.33 2.31 3.66 4.62 4 7 C2 8 2 8 -1 8 C-1.66 7.01 -2.32 6.02 -3 5 C-1.6875 2.5 -1.6875 2.5 0 0 Z " fill="#E8E8E8" transform="translate(302,153)"/>
  <path d="M0 0 C2.85793316 2.85793316 2.40799941 5.14665584 2.625 9.125 C2.69976562 10.40632812 2.77453125 11.68765625 2.8515625 13.0078125 C2.92503906 14.48894531 2.92503906 14.48894531 3 16 C2.01 16 1.02 16 0 16 C0 10.72 0 5.44 0 0 Z " fill="#040404" transform="translate(331,220)"/>
  <path d="M0 0 C2.49361571 1.20381448 4.68143083 2.45428722 7 4 C6.34 4 5.68 4 5 4 C5 4.99 5 5.98 5 7 C3 6 1 5 -1 4 C-1.33 4.99 -1.66 5.98 -2 7 C-2.125 4.625 -2.125 4.625 -2 2 C-1.34 1.34 -0.68 0.68 0 0 Z " fill="#A5A5A5" transform="translate(174,155)"/>
  <path d="M0 0 C0.66 0 1.32 0 2 0 C3.25664978 2.90600261 4 4.79604584 4 8 C2.02 8 0.04 8 -2 8 C-1.47731534 5.23723823 -0.89130413 2.6739124 0 0 Z " fill="#D0D0D0" transform="translate(255,335)"/>
  <path d="M0 0 C1.66666667 1.66666667 3.33333333 3.33333333 5 5 C5.928125 5.845625 6.85625 6.69125 7.8125 7.5625 C10 10 10 10 10 14 C9.34 14 8.68 14 8 14 C6.96564444 12.35443434 5.97236487 10.6829392 5 9 C4.29875 8.154375 3.5975 7.30875 2.875 6.4375 C1.11439198 4.14870957 0.41587915 2.80718425 0 0 Z " fill="#171717" transform="translate(310,241)"/>
  <path d="M0 0 C6.38235294 -0.49095023 6.38235294 -0.49095023 9.4375 1.9375 C11 4 11 4 11 5 C6.55129785 5.39253254 3.85756507 4.15305957 0 2 C0 1.34 0 0.68 0 0 Z " fill="#ACACAC" transform="translate(203,238)"/>
  <path d="M0 0 C1.0698502 1.9970537 1.94594245 3.69531199 2.34375 5.9375 C3.18585511 8.58411605 4.41193342 9.52954673 6.5625 11.25 C7.52349609 12.03117188 7.52349609 12.03117188 8.50390625 12.828125 C8.99761719 13.21484375 9.49132812 13.6015625 10 14 C8.68 14.33 7.36 14.66 6 15 C-1.01969365 7.12253829 -1.01969365 7.12253829 -0.9375 2.4375 C-0.628125 1.633125 -0.31875 0.82875 0 0 Z " fill="#2E2E2E" transform="translate(282,174)"/>
  <path d="M0 0 C2.60623142 0.35219343 4.60789115 0.76473469 6.875 2.125 C8.67626472 5.12710787 7.68453372 7.70179208 7 11 C6.01 10.01 5.02 9.02 4 8 C4.66 8 5.32 8 6 8 C5.24849977 4.72226496 5.24849977 4.72226496 2 3 C2 2.34 2 1.68 2 1 C1.34 0.67 0.68 0.34 0 0 Z " fill="#222222" transform="translate(178,172)"/>
  <path d="M0 0 C0.99 0.33 1.98 0.66 3 1 C1.515 7.435 1.515 7.435 0 14 C-0.66 13.34 -1.32 12.68 -2 12 C-1.66887313 7.89402683 -1.15559618 3.96204403 0 0 Z " fill="#333333" transform="translate(140,220)"/>
  <path d="M0 0 C0.33 1.32 0.66 2.64 1 4 C1.66 4 2.32 4 3 4 C3.42820102 7.63970867 2.97413512 9.04569463 1.125 12.3125 C0.073125 13.6428125 0.073125 13.6428125 -1 15 C-1.66 15 -2.32 15 -3 15 C-2.690625 14.0925 -2.38125 13.185 -2.0625 12.25 C-0.65048532 7.93089629 0.12674948 4.56298144 0 0 Z " fill="#E2E2E2" transform="translate(207,183)"/>
  <path d="M0 0 C0 1.98 0 3.96 0 6 C-1.98 6.99 -1.98 6.99 -4 8 C-4.6875 5.6875 -4.6875 5.6875 -5 3 C-3.40083326 0.79162689 -2.76966516 0 0 0 Z " fill="#929292" transform="translate(216,151)"/>
  <path d="M0 0 C3.63 0 7.26 0 11 0 C11.33 1.65 11.66 3.3 12 5 C11.34 5 10.68 5 10 5 C10 4.01 10 3.02 10 2 C6.7 2 3.4 2 0 2 C0 1.34 0 0.68 0 0 Z " fill="#2A2A2A" transform="translate(222,249)"/>
  <path d="M0 0 C0.66 0.33 1.32 0.66 2 1 C2 1.99 2 2.98 2 4 C0.68 4 -0.64 4 -2 4 C-2.59732819 6.76264289 -3 9.16032769 -3 12 C-4.5625 10.75 -4.5625 10.75 -6 9 C-6 5.70982308 -4.7074789 4.68607492 -2.4375 2.25 C-1.633125 1.5075 -0.82875 0.765 0 0 Z " fill="#6C6C6C" transform="translate(182,176)"/>
  <path d="M0 0 C0.79921875 0.01804688 1.5984375 0.03609375 2.421875 0.0546875 C3.02515625 0.07789063 3.6284375 0.10109375 4.25 0.125 C4.25 1.445 4.25 2.765 4.25 4.125 C3.59 3.795 2.93 3.465 2.25 3.125 C0.37943209 2.8974985 -1.49685958 2.71537189 -3.375 2.5625 C-4.37789062 2.47871094 -5.38078125 2.39492187 -6.4140625 2.30859375 C-7.18492187 2.24800781 -7.95578125 2.18742188 -8.75 2.125 C-5.68753253 0.34090198 -3.52920727 -0.10380021 0 0 Z " fill="#7C7C7C" transform="translate(208.75,233.875)"/>
  <path d="M0 0 C-0.639375 0.391875 -1.27875 0.78375 -1.9375 1.1875 C-4.43778819 3.38472296 -4.64950425 4.75791433 -5 8 C-5.33 7.34 -5.66 6.68 -6 6 C-6.66 6 -7.32 6 -8 6 C-8 5.34 -8 4.68 -8 4 C-8.66 3.67 -9.32 3.34 -10 3 C-3.375 -1.125 -3.375 -1.125 0 0 Z " fill="#0F0F0F" transform="translate(293,150)"/>
  <path d="M0 0 C3.63 0 7.26 0 11 0 C9.02 0.99 9.02 0.99 7 2 C6.18415432 5.05908413 6.18415432 5.05908413 6 8 C4 5 4 5 3 2 C2.01 1.34 1.02 0.68 0 0 Z " fill="#131313" transform="translate(230,248)"/>
  <path d="M0 0 C0.33 0 0.66 0 1 0 C1.33 3.3 1.66 6.6 2 10 C1.34 10 0.68 10 0 10 C-0.33 10.66 -0.66 11.32 -1 12 C-1.33 9.03 -1.66 6.06 -2 3 C-1.34 3 -0.68 3 0 3 C0 2.01 0 1.02 0 0 Z " fill="#252525" transform="translate(324,231)"/>
  <path d="M0 0 C0.66 0.33 1.32 0.66 2 1 C2.73075648 3.3140622 3.40138258 5.64828869 4 8 C2.68 8.33 1.36 8.66 0 9 C-0.66 7.68 -1.32 6.36 -2 5 C-1.34 5 -0.68 5 0 5 C0 3.35 0 1.7 0 0 Z " fill="#5F5F5F" transform="translate(195,195)"/>
  <path d="M0 0 C-2.35968744 2.09749995 -3.54616994 2.96905704 -6.75 3.1875 C-7.86375 3.0946875 -7.86375 3.0946875 -9 3 C-9 2.01 -9 1.02 -9 0 C-5.62182575 -0.84454356 -3.32534757 -1.10844919 0 0 Z " fill="#181818" transform="translate(216,150)"/>
  <path d="M0 0 C1.23367942 2.46735884 1 4.26809601 1 7 C1.33 7.66 1.66 8.32 2 9 C-0.31 8.67 -2.62 8.34 -5 8 C-3.62845496 5.04590299 -2.01136276 2.55991624 0 0 Z " fill="#EFEFEF" transform="translate(195,193)"/>
  <path d="M0 0 C2.97 0 5.94 0 9 0 C8.67 0.99 8.34 1.98 8 3 C5.6568787 2.74438677 3.32156597 2.40729228 1 2 C0.67 1.34 0.34 0.68 0 0 Z " fill="#171717" transform="translate(197,151)"/>
  <path d="M0 0 C2.31 0 4.62 0 7 0 C6.67 2.97 6.34 5.94 6 9 C5.67 9 5.34 9 5 9 C5 7.02 5 5.04 5 3 C3.68 3 2.36 3 1 3 C0.67 2.01 0.34 1.02 0 0 Z " fill="#404040" transform="translate(272,156)"/>
  <path d="M0 0 C-0.99 1.32 -1.98 2.64 -3 4 C-3 3.34 -3 2.68 -3 2 C-5.46800047 3.15173355 -7.04783565 4.04783565 -9 6 C-9 4.35 -9 2.7 -9 1 C-2.25 -1.125 -2.25 -1.125 0 0 Z " fill="#060606" transform="translate(308,151)"/>
  <path d="M0 0 C2.23551759 3.35327639 2.17283528 3.90743657 1.625 7.6875 C1.51414062 8.49574219 1.40328125 9.30398437 1.2890625 10.13671875 C1.19367188 10.75160156 1.09828125 11.36648437 1 12 C0.34 11.34 -0.32 10.68 -1 10 C-0.9765625 7.6171875 -0.9765625 7.6171875 -0.625 4.875 C-0.51414062 3.96492187 -0.40328125 3.05484375 -0.2890625 2.1171875 C-0.19367188 1.41851562 -0.09828125 0.71984375 0 0 Z " fill="#4F4F4F" transform="translate(263,229)"/>
  <path d="M0 0 C4.83256305 0.41421969 6.82679218 2.46413986 10 6 C6.62972148 6 5.93297304 5.50175992 3.3125 3.5625 C2.68988281 3.11003906 2.06726563 2.65757812 1.42578125 2.19140625 C0.95527344 1.79824219 0.48476562 1.40507812 0 1 C0 0.67 0 0.34 0 0 Z " fill="#3C3C3C" transform="translate(216,191)"/>
  <path d="M0 0 C0.33 0 0.66 0 1 0 C1.66 2.97 2.32 5.94 3 9 C2.01 9.33 1.02 9.66 0 10 C-0.19412181 8.52168779 -0.38012131 7.04230684 -0.5625 5.5625 C-0.66691406 4.73878906 -0.77132812 3.91507813 -0.87890625 3.06640625 C-0.91886719 2.38449219 -0.95882812 1.70257813 -1 1 C-0.67 0.67 -0.34 0.34 0 0 Z " fill="#1C1C1C" transform="translate(171,156)"/>
  <path d="M0 0 C-2.85306797 2.32472205 -5.54074837 3.7508258 -9 5 C-9 4.01 -9 3.02 -9 2 C-5.86501708 0.14223235 -3.62528568 -0.20140476 0 0 Z " fill="#252525" transform="translate(166,190)"/>
  <path d="M0 0 C0.66 0.33 1.32 0.66 2 1 C-2.455 4.465 -2.455 4.465 -7 8 C-7.66 7.34 -8.32 6.68 -9 6 C-6.03 4.02 -3.06 2.04 0 0 Z " fill="#383838" transform="translate(267,184)"/>
  <path d="M0 0 C1.423125 0.2784375 1.423125 0.2784375 2.875 0.5625 C5.89868793 1.28686632 5.89868793 1.28686632 8 0 C7.34 1.32 6.68 2.64 6 4 C4.35 3.67 2.7 3.34 1 3 C0.67 2.01 0.34 1.02 0 0 Z " fill="#282828" transform="translate(299,166)"/>
  <path d="M0 0 C0.66 0 1.32 0 2 0 C2 2.31 2 4.62 2 7 C1.01 7.33 0.02 7.66 -1 8 C-0.67 5.36 -0.34 2.72 0 0 Z " fill="#0A0A0A" transform="translate(217,167)"/>
</svg>